<?xml version="1.0" encoding="UTF-8"?>
<svg width="75px" height="75px" viewBox="0 0 75 75" version="1.1" xmlns="http://www.w3.org/2000/svg" xmlns:xlink="http://www.w3.org/1999/xlink">
    <title>AlienMonster</title>
    <defs>
        <radialGradient cx="50%" cy="0%" fx="50%" fy="0%" r="100.001446%" gradientTransform="translate(0.500000,0.000000),scale(1.000000,0.999986),rotate(90.000000),translate(-0.500000,-0.000000)" id="radialGradient-1">
            <stop stop-color="#0EAF15" offset="0%"></stop>
            <stop stop-color="#88D42F" offset="100%"></stop>
        </radialGradient>
    </defs>
    <g id="Page-1" stroke="none" stroke-width="1" fill="none" fill-rule="evenodd">
        <g id="MonsterIcons" transform="translate(-668.000000, -181.000000)" fill-rule="nonzero">
            <g id="AlienMonster" transform="translate(668.000000, 181.000000)">
                <g id="Group" transform="translate(1.000000, 1.000000)">
                    <path d="M25.5,11.4 C24.7,4.8 30.2,-0.7 36.8,0.1 C41.6,0.7 45.6,4.8 45.6,10.2 C45.9,19.1 30.8,24.2 40.1,24.2 C42.9,24.2 45.7,23.3 48,21.6 C45.5,17.9 48.5,12.8 53.1,13.4 C55.5,13.7 57.4,15.6 57.7,18 C58.1,21.4 55.2,24.3 51.7,23.9 C51.2,23.8 50.8,23.7 50.4,23.5 C49.8,26 50.4,28.8 52.3,30.8 C55.5,34.3 57.5,38.8 57.7,43.9 C60,47.2 65,51.8 68.1,54.4 C68.4,54.6 68.6,54.6 69,54.3 C70,53.4 71.6,52.7 72.4,53.3 C73.2470588,53.8647059 72.250519,54.3297578 71.1338083,54.7654997 L70.8531244,54.8738653 C70.4782007,55.0176471 70.1058824,55.1588235 69.8,55.3 C71.9,55.9 73,57.3 72.9,58 C72.9,58.8 71.7,58.9 69.3,56.6 C70.5,59.2 70.2,60.8 69.3,59.7 C67.9,57.9 68.2,57 67.4,56 C67.4,56 64.1657551,53.2413793 61.1414408,50.3154701 L60.6897987,49.875653 C59.4919144,48.7011891 58.3551724,47.5206897 57.5,46.5 C56.9,53.7 52.7,59.9 46.6,63.1 C46.4,65.9 46.1,67.8 45.8,68.8 C45.9411765,68.7905882 46.0885536,68.7851626 46.2405058,68.7833376 L46.471662,68.7832523 C46.6668128,68.7853512 46.8678419,68.7927748 47.071574,68.8047699 L47.3171468,68.8213102 C47.4814561,68.8337356 47.6466824,68.8488941 47.8112,68.8664 L48.0572418,68.8943712 L48.0572418,68.8943712 L48.3010013,68.9255743 C50.8845952,69.2746159 52.8705882,70.1258824 47.6,69.9 C49.9,70.9 48.2,71.8 45.7,70.5 C44.9,73.8 41.8,71 44.6,69.2 C44.2,68.5 43.8,66.9 43.3,64.6 C39,66 34.6,65.9 30.6,64.6 C30.2,66.9 29.7,68.4 29.3,69.2 C32.1,70.9 29,73.8 28.2,70.5 C25.7,71.8 23.9,70.9 26.3,69.9 C20.8785714,70.1357143 23.297449,69.1367347 25.989723,68.8432945 L26.2350178,68.8186157 C26.8900227,68.7582766 27.547619,68.7428571 28.1,68.8 C27.8,67.8 27.5,65.9 27.3,63.1 C21.2,59.8 17,53.6 16.4,46.5 C15.5448276,47.5206897 14.4080856,48.7011891 13.2102013,49.875653 L12.7585592,50.3154701 C9.73424495,53.2413793 6.5,56 6.5,56 C5.7,57.1 6,58 4.5,59.8 C3.6,61 3.3,59.3 4.5,56.7 C2.1,59 0.9,58.9 0.9,58.1 C0.9,57.3 2,55.9 4.1,55.3 C2.8,54.7 0.4,54.1 1.5,53.3 C2.3,52.7 3.9,53.4 4.9,54.3 C5.3,54.6 5.5,54.6 5.8,54.4 C8.9,51.8 14,47.3 16.2,44 C16.6,34.5 21.8,23.6 30,18.5 C27.6,17 25.9,14.4 25.5,11.4 Z" id="Shape" stroke="#000000" stroke-width="2" fill="#FFFFFF"></path>
                    <path d="M69.9,55.2775767 C71.2,54.6775767 73.7,54.0775767 72.5,53.2775767 C71.7,52.6775767 70.1,53.3775767 69.1,54.2775767 C68.7,54.5775767 68.5,54.5775767 68.2,54.3775767 C65.1,51.7775767 60.1,47.1775767 57.8,43.8775767 C57.6,38.7775767 55.6,34.2775767 52.4,30.7775767 C50.5,28.7775767 49.9,25.9775767 50.5,23.4775767 C50.9,23.6775767 51.3,23.7775767 51.8,23.8775767 C55.3,24.2775767 58.2,21.3775767 57.8,17.9775767 C57.5,15.5775767 55.6,13.6775767 53.2,13.3775767 C48.6,12.7775767 45.6,17.8775767 48.1,21.5775767 C45.8,23.2775767 43,24.1775767 40.2,24.1775767 C30.9,24.1775767 46,19.0775767 45.7,10.1775767 C45.7,4.77757666 41.7,0.67757666 36.9,0.0775766597 C30.3,-0.72242334 24.8,4.77757666 25.6,11.3775767 C26,14.3775767 27.7,16.9775767 30.1,18.4775767 C21.9,23.5775767 16.7,34.4775767 16.3,43.9775767 C14.1,47.2775767 9,51.7775767 5.9,54.3775767 C5.6,54.5775767 5.4,54.5775767 5,54.2775767 C4,53.3775767 2.4,52.6775767 1.6,53.2775767 C0.5,54.0775767 2.9,54.6775767 4.2,55.2775767 C2.1,55.8775767 1,57.2775767 1,58.0775767 C1,58.8775767 2.2,58.9775767 4.6,56.6775767 C3.4,59.2775767 3.7,60.9775767 4.6,59.7775767 C6.1,57.9775767 5.8,57.0775767 6.6,55.9775767 C6.6,55.9775767 13.4,50.1775767 16.5,46.4775767 C17.1,53.5775767 21.3,59.7775767 27.4,63.0775767 C27.6,65.8775767 27.9,67.7775767 28.2,68.7775767 C25.3,68.4775767 19.5,70.1775767 26.4,69.8775767 C24,70.8775767 25.8,71.7775767 28.3,70.4775767 C29.1,73.7775767 32.2,70.8775767 29.4,69.1775767 C29.8,68.3775767 30.3,66.8775767 30.7,64.5775767 C34.7,65.8775767 39.1,65.9775767 43.4,64.5775767 C43.9,66.8775767 44.3,68.4775767 44.7,69.1775767 C41.9,70.9775767 45,73.7775767 45.8,70.4775767 C48.3,71.7775767 50,70.8775767 47.7,69.8775767 C54.7,70.1775767 48.9,68.5775767 45.9,68.7775767 C46.2,67.7775767 46.5,65.8775767 46.7,63.0775767 C52.8,59.8775767 57,53.6775767 57.6,46.4775767 C60.7,50.1775767 67.5,55.9775767 67.5,55.9775767 C68.3,56.9775767 68,57.8775767 69.4,59.6775767 C70.3,60.7775767 70.6,59.1775767 69.4,56.5775767 C71.8,58.8775767 73,58.7775767 73,57.9775767 C73.1,57.2775767 72,55.8775767 69.9,55.2775767 Z M52.7,15.6775767 C54.7,15.6775767 56.3,17.2775767 56.3,19.2775767 C56.3,21.2775767 54.7,22.8775767 52.7,22.8775767 C50.7,22.8775767 49.1,21.2775767 49.1,19.2775767 C49.1,17.2775767 50.7,15.6775767 52.7,15.6775767 Z M38.1,32.3775767 C40.8,32.9775767 43.3,36.1775767 42.6,38.7775767 C42.6,36.2775767 39.9,33.5775767 38,33.2775767 C36.2,33.0775767 32.8,34.8775767 32.1,37.3775767 C32.1,34.6775767 35.3,32.2775767 38.1,32.3775767 Z M40.7,37.2775767 C40.5,38.8775767 38,38.5775767 38.3,36.9775767 C38.4,36.2775767 39,35.7775767 39.7,35.8775767 C40.3,35.9775767 40.8,36.6775767 40.7,37.2775767 Z M36.7,36.7775767 C36.6,37.4775767 36,37.9775767 35.3,37.8775767 C34.6,37.7775767 34.2,37.1775767 34.2,36.4775767 C34.5,34.8775767 37,35.1775767 36.7,36.7775767 Z M29,11.3775767 C29,7.57757666 32.1,4.57757666 35.9,4.57757666 C39.7,4.57757666 42.8,7.67757666 42.8,11.3775767 C42.8,15.1775767 39.7,18.2775767 35.9,18.2775767 C32.1,18.2775767 29,15.1775767 29,11.3775767 Z M27.8,55.8775767 C23.6,51.6775767 23.9,46.5775767 23.9,42.7775767 C23.9,40.1775767 26.2,38.5775767 28.4,39.0775767 C35.3,40.9775767 42.2,41.3775767 47.2,40.9775767 C47.3,40.9775767 47.2,40.9775767 47.3,40.9775767 C49.4,40.9775767 50.9,42.6775767 50.9,44.7775767 C50.9,58.0775767 37.1,65.0775767 27.8,55.8775767 Z" id="Shape" fill="url(#radialGradient-1)"></path>
                    <path d="M36.1,15.1 C37.9,15.1 39.4,13.6 39.4,11.8 C39.4,10 37.9,8.5 36.1,8.5 C35.5,8.5 35,8.6 34.5,8.9 C34.9,9 35.3,9.4 35.3,9.9 C35.3,10.5 34.8,10.9 34.3,10.9 C33.8,10.9 33.4,10.6 33.3,10.1 C33,10.6 32.9,11.1 32.9,11.7 C32.8,13.7 34.3,15.1 36.1,15.1 Z M38,11.1 C38.5,11.1 38.8,11.5 38.8,11.9 C38.8,12.3 38.4,12.7 38,12.7 C37.6,12.7 37.2,12.3 37.2,11.9 C37.2,11.4 37.6,11.1 38,11.1 Z" id="Shape" fill="#000000"></path>
                    <path d="M52.7,21.3 C53.7,21.3 54.4,20.5 54.4,19.6 C54.4,18.7 53.6,17.9 52.7,17.9 C52.4,17.9 52.1,18 51.9,18.1 C52.1,18.2 52.3,18.4 52.3,18.6 C52.3,18.9 52.1,19.1 51.8,19.1 C51.5,19.1 51.3,18.9 51.3,18.7 C51.1,18.9 51.1,19.2 51.1,19.5 C51,20.5 51.8,21.3 52.7,21.3 Z M53.8,19.1 C54,19.1 54.2,19.3 54.2,19.5 C54.2,19.7 54,19.9 53.8,19.9 C53.6,19.9 53.4,19.7 53.4,19.5 C53.3,19.3 53.5,19.1 53.8,19.1 Z" id="Shape" fill="#000000"></path>
                    <path d="M46.3,54.5 C46.4,54.4 46.6,54.3 46.7,54.2 C46.7,54.2 46.8,54.1 46.8,54.1 L46.8,54.1 C46.8,54.1 46.8,54.1 46.8,54 C46.6,54.1 46.5,54.3 46.3,54.5 Z" id="Path" fill="#000000"></path>
                    <path d="M49.6,44.1 C48.9,42.7 47.5,42.7 46.5,42.8 C46.2,43.7 45.7,44.4 45,45 C44.9,45.1 44.7,45.1 44.5,45 C44.3,44.9 44.3,44.7 44.3,44.5 L44.4,42.9 C43.6,42.9 42.9,42.9 42.1,42.9 C42.4,46.5 43.3,46.9 38.4,47.1 C37.4,47.1 37.6,45.8 37.3,42.6 C36.7,42.5 36.2,42.5 35.6,42.4 C35.2,47.2 35.7,47.3 33,46.6 C32.7,46.5 32.7,46.1 32.7,45.7 L32.7,41.9 C31.7,41.8 31.7,41.7 30.7,41.7 C30.7,42.1 30.8,45.1 30.6,45.4 C30.6,45.4 30.5,45.5 30.5,45.5 C30.5,45.5 30.5,45.3 30.5,45.3 C30.5,45.3 30.4,45.1 30.3,45.1 C30.3,45.1 30.2,45.3 30.1,45.2 C30.1,45.2 30.1,45.3 30.1,45.3 C29.5,44.9 29.1,44.5 28.8,44 C28.4,43.3 27.7,41.9 27.7,41.1 C27.7,41.1 27.7,41.1 27.7,41.1 C27.7,41 27.8,41.1 27.8,41 C27.7,41 27.6,41.1 27.5,41.1 C27.3,41.1 27.2,41 27,41 C26.8,40.9 26.7,40.9 26.5,40.9 C26.1,40.9 25.7,41 25.5,41.2 C25.5,41.2 25.5,41.2 25.4,41.2 C24.4,42.2 24.7,42.9 24.7,45.8 C24.7,48.6 25.8,51.5 27.5,53.6 C27.5,53.5 27.7,53.5 27.7,53.4 C27.7,53.4 27.6,53.3 27.6,53.3 C27.9,52 28.7,51.9 30,52.3 C31.5,52.8 30.5,54.9 30.7,56.3 C30.7,56.3 30.7,56.3 30.7,56.3 C30.7,56.3 30.7,56.4 30.7,56.4 C30.9,56.5 31.2,56.7 31.4,56.8 C31.5,56.7 31.5,56.8 31.6,56.6 C31.6,52 32.1,53.4 34.7,53.9 C35.2,54 35.5,54.5 35.6,55 L35.6,58 L35.6,58.1 L35.7,58.3 C36.3,58.4 37,58.4 37.7,58.4 C37.7,58.3 37.7,58.2 37.7,58.1 L37.8,58.1 L37.9,55.1 C37.9,54.7 38.1,54.4 38.2,54.3 C38.2,54.3 38.2,54.2 38.3,54.2 C38.4,54.1 38.6,54 38.8,53.9 C39.5,53.7 40,53.6 40.9,53.3 C41,53.3 41,53.3 41.1,53.3 C41.2,53.3 41.3,53.3 41.4,53.3 C42.4,53.5 42.3,54.5 42.6,56.8 L42.6,56.8 C42.6,56.8 42.7,56.8 42.7,56.7 C42.7,56.7 42.7,56.8 42.7,56.8 L42.7,57 C43.3,56.7 43.5,56.6 43.7,56.5 C43.7,55.5 43.2,54.4 43.3,53.3 C43.3,53 43.3,53 43.4,52.9 C43.4,52.7 43.5,52.6 43.6,52.5 C43.8,52.3 44.1,52.2 44.4,52.1 C44.5,52.1 44.7,52 44.8,52 C44.8,52 45.1,52 45.1,52 C45.2,52 45.4,52.1 45.4,52.1 C45.5,52.1 45.5,52.2 45.6,52.2 C45.9,52.4 46.2,52.9 46.6,53.6 C46.6,53.6 46.6,53.6 46.6,53.6 C46.6,53.6 46.6,53.7 46.7,53.7 C49.1,50.9 49.7,47.4 49.7,45.4 C49.7,45.4 49.7,45.4 49.7,45.4 C49.7,45.3 49.7,45.2 49.7,45.2 C49.8,44.8 49.7,44.4 49.6,44.1 C49.7,44.1 49.6,44.1 49.6,44.1 Z" id="Path" fill="#000000"></path>
                </g>
            </g>
        </g>
    </g>
</svg>