<?xml version="1.0" encoding="UTF-8"?>
<svg width="57px" height="68px" viewBox="0 0 57 68" version="1.1" xmlns="http://www.w3.org/2000/svg" xmlns:xlink="http://www.w3.org/1999/xlink">
    <title>AnnoyingMonster</title>
    <defs>
        <radialGradient cx="50%" cy="0%" fx="50%" fy="0%" r="114.902512%" gradientTransform="translate(0.500000,0.000000),scale(1.000000,0.859225),rotate(90.000000),translate(-0.500000,-0.000000)" id="radialGradient-1">
            <stop stop-color="#C60101" offset="0%"></stop>
            <stop stop-color="#F354A8" offset="100%"></stop>
        </radialGradient>
    </defs>
    <g id="Page-1" stroke="none" stroke-width="1" fill="none" fill-rule="evenodd">
        <g id="MonsterIcons" transform="translate(-606.000000, -189.000000)" fill-rule="nonzero">
            <g id="AnnoyingMonster" transform="translate(606.000000, 189.000000)">
                <g id="Group" transform="translate(1.000000, 1.000000)">
                    <path d="M42.6096393,6.7118642e-05 L42.7075337,0.00639472905 C44.6075337,0.306394729 46.6075337,0.706394729 48.6075337,1.90639473 C56.8075337,6.70639473 53.0075337,16.6063947 45.3075337,22.9063947 C45.6075337,24.3063947 45.8075337,25.8063947 45.8075337,27.5063947 C46.0075337,27.6663947 46.2235337,27.8383947 46.4371337,28.0159947 L46.6911241,28.2313931 C47.4425737,28.8831947 48.0675337,29.5743947 47.7075337,30.0063947 C54.1075337,36.5063947 57.3075337,49.0063947 53.1075337,53.2063947 C55.2075337,56.4063947 52.5075337,56.9063947 52.5075337,55.3063947 C52.5075337,55.1063947 52.4075337,54.4063947 52.3075337,53.8063947 C51.6075337,54.3063947 51.0075337,54.4063947 50.9075337,54.4063947 C51.8075337,57.2063947 49.4075337,57.2063947 49.7075337,55.7063947 C49.7075337,55.6973038 49.7083602,55.6849071 49.7098628,55.66943 L49.7257907,55.541406 C49.7546412,55.3262294 49.8075337,54.9427584 49.8075337,54.5063947 C49.4075337,54.5063947 48.6075337,54.4063947 48.2075337,54.2063947 C48.3075337,57.4063947 44.9075337,56.1063947 46.4075337,54.9063947 C46.6075337,54.8063947 47.2075337,54.5063947 47.5075337,53.9063947 C46.9075337,53.5063947 46.3075337,53.1063947 45.9075337,52.4063947 C45.5075337,52.8063947 45.3075337,53.3063947 45.1075337,53.8063947 C44.5075337,55.6063947 43.4075337,54.8063947 43.4075337,53.6063947 C43.4075337,52.2063947 44.3075337,51.1063947 45.5075337,50.8063947 C45.5075337,48.7063947 48.6075337,46.8063947 47.1075337,40.5063947 C46.8075337,39.0063947 46.4075337,37.9063947 45.7075337,36.7063947 C45.1075337,36.8063947 44.6075337,36.2063947 44.3075337,35.8063947 C42.9075337,40.7063947 40.5075337,46.2063947 37.4075337,50.3063947 C38.8075337,57.4063947 37.6075337,56.8063947 36.7075337,55.6063947 C36.9075337,57.9063947 36.2075337,60.0063947 35.6075337,62.5063947 C37.3075337,59.3063947 42.1075337,60.5063947 42.7075337,64.0063947 L42.7075337,64.0063947 L34.7075337,64.0063947 C34.1075337,64.0063947 33.5075337,63.4063947 33.7075337,62.8063947 C34.0075337,59.9063947 32.9075337,59.0063947 31.9075337,57.1063947 C30.9075337,58.2063947 29.6075337,57.7063947 29.4075337,56.5063947 C28.1075337,56.8063947 26.8075337,56.9063947 25.4075337,56.5063947 C25.2075337,57.7063947 23.9075337,58.2063947 22.9075337,57.1063947 C22.0075337,59.0063947 20.8075337,60.0063947 21.1075337,62.8063947 C21.3075337,63.5063947 20.8075337,64.1063947 20.1075337,64.0063947 L20.1075337,64.0063947 L12.0075337,64.0063947 C12.7075337,60.5063947 17.4075337,59.4063947 19.1075337,62.5063947 C18.5075337,60.0063947 17.8075337,58.0063947 18.0075337,55.6063947 C17.9936876,55.6248563 17.9797704,55.6431521 17.9657928,55.6612575 L17.8812863,55.7674067 C17.8245777,55.8363851 17.7672399,55.9015241 17.7099487,55.961239 L17.6241313,56.0465451 C16.8250722,56.8010693 16.1013799,56.337164 17.3075337,50.3063947 C14.2075337,46.2063947 11.8075337,40.7063947 10.4075337,35.8063947 L10.4075337,35.8063947 L10.3075337,35.9063947 C9.80753373,36.5063947 9.40753373,36.8063947 9.00753373,36.7063947 C8.30753373,37.9063947 8.00753373,39.0063947 7.60753373,40.5063947 C6.10753373,46.7063947 9.10753373,48.7063947 9.20753373,50.8063947 C10.4075337,51.2063947 11.3075337,52.3063947 11.3075337,53.6063947 C11.3075337,54.9063947 10.2075337,55.6063947 9.60753373,53.8063947 C9.40753373,53.3063947 9.20753373,52.8063947 8.80753373,52.4063947 C8.40753373,53.1063947 7.90753373,53.5063947 7.20753373,53.9063947 C7.50753373,54.5063947 8.20753373,54.8063947 8.30753373,54.9063947 C9.90753373,56.0063947 6.40753373,57.4063947 6.50753373,54.2063947 C6.10753373,54.3063947 5.40753373,54.5063947 5.00753373,54.5063947 C5.00753373,55.0063947 5.10753373,55.6063947 5.10753373,55.7063947 C5.50753373,57.2063947 3.10753373,57.3063947 3.90753373,54.4063947 C3.70753373,54.3063947 3.20753373,54.2063947 2.50753373,53.8063947 C2.40753373,54.5063947 2.30753373,55.2063947 2.30753373,55.3063947 C2.30753373,56.9063947 -0.392466271,56.4063947 1.60753373,53.5063947 C-2.09246627,49.5063947 0.907533729,37.0063947 7.40753373,30.4063947 C7.00753373,29.9063947 8.50753373,28.6063947 9.30753373,27.9063947 C9.40753373,25.7063947 9.70753373,23.7063947 10.2075337,22.0063947 C4.80753373,15.6063947 3.20753373,6.40639473 10.9075337,4.10639473 C12.7075337,3.50639473 14.3075337,3.60639473 15.8075337,3.70639473 C16.4075337,3.70639473 16.5075337,4.70639473 16.0075337,4.90639473 C14.6075337,5.40639473 13.2075337,6.00639473 12.3075337,6.80639473 C10.6075337,8.30639473 10.6075337,10.1063947 11.9075337,11.3063947 C12.6075337,12.2063947 13.4075337,12.9063947 14.3075337,13.6063947 C14.6075337,12.7063947 15.2075337,11.9063947 15.8075337,11.3063947 C15.4075337,11.4063947 15.0075337,11.4063947 14.5075337,11.5063947 C12.0075337,12.0063947 11.7075337,8.20639473 14.4075337,7.50639473 C16.9075337,6.80639473 19.5075337,7.80639473 21.6075337,9.30639473 L21.6075337,9.30639473 L21.8075337,9.30639473 C17.9075337,5.10639473 20.5075337,2.60639473 22.6075337,5.40639473 C24.0075337,7.20639473 25.2075337,9.20639473 26.2075337,11.2063947 L26.199,11.19 L26.142683,11.0687605 C25.0186448,8.53165594 27.4326184,5.27420831 28.2637972,7.7648046 L28.3075337,7.90639473 C28.7075337,9.10639473 28.8075337,10.3063947 28.8075337,11.4063947 L28.8075337,11.4063947 L29.8075337,11.4063947 L29.8075337,11.4063947 L29.8075337,11.2063947 C30.2075337,9.80639473 31.2075337,10.4063947 31.5075337,11.6063947 C31.8075337,11.6063947 32.1075337,11.6063947 32.4075337,11.7063947 C33.0075337,10.8063947 33.5075337,10.0063947 34.1075337,9.20639473 C35.7075337,7.00639473 37.7075337,8.90639473 34.7075337,12.1063947 L34.7075337,12.1063947 L34.8075337,12.1063947 C36.4075337,10.9063947 38.3075337,10.1063947 40.3075337,10.6063947 C41.3075337,10.8063947 41.7075337,11.7063947 41.7075337,12.4063947 C43.0075337,11.9063947 44.2075337,11.2063947 45.2075337,10.4063947 C47.1075337,9.30639473 47.7075337,7.10639473 46.1075337,4.80639473 C45.2075337,3.60639473 43.7075337,2.40639473 42.1075337,1.40639473 C41.6075337,1.00639473 42.0075337,-0.0936052709 42.7075337,0.00639472905 Z" id="Shape" stroke="#000000" fill="#FFFFFF"></path>
                    <path d="M47.7075337,30.0063947 C48.2075337,29.4063947 46.8075337,28.3063947 45.8075337,27.5063947 C45.8075337,25.8063947 45.6075337,24.3063947 45.3075337,22.9063947 C53.0075337,16.6063947 56.8075337,6.70639473 48.6075337,1.90639473 C46.6075337,0.706394729 44.6075337,0.306394729 42.7075337,0.00639472905 C42.0075337,-0.0936052709 41.6075337,1.00639473 42.1075337,1.40639473 C43.7075337,2.40639473 45.2075337,3.60639473 46.1075337,4.80639473 C47.7075337,7.10639473 47.1075337,9.30639473 45.2075337,10.4063947 C44.2075337,11.2063947 43.0075337,11.9063947 41.7075337,12.4063947 C41.7075337,11.7063947 41.3075337,10.8063947 40.3075337,10.6063947 C38.3075337,10.1063947 36.4075337,10.9063947 34.8075337,12.1063947 C34.8075337,12.1063947 34.7075337,12.1063947 34.7075337,12.1063947 C37.7075337,8.90639473 35.7075337,7.00639473 34.1075337,9.20639473 C33.5075337,10.0063947 33.0075337,10.8063947 32.4075337,11.7063947 C32.1075337,11.6063947 31.8075337,11.6063947 31.5075337,11.6063947 C31.2075337,10.4063947 30.2075337,9.80639473 29.8075337,11.2063947 C29.8075337,11.3063947 29.8075337,11.3063947 29.8075337,11.4063947 C29.5075337,11.4063947 29.1075337,11.4063947 28.8075337,11.4063947 C28.8075337,10.3063947 28.7075337,9.10639473 28.3075337,7.90639473 C27.5075337,5.10639473 24.9075337,8.60639473 26.2075337,11.2063947 C25.2075337,9.20639473 24.0075337,7.20639473 22.6075337,5.40639473 C20.5075337,2.60639473 17.9075337,5.10639473 21.8075337,9.30639473 C21.7075337,9.30639473 21.6075337,9.30639473 21.6075337,9.30639473 C19.5075337,7.80639473 16.9075337,6.80639473 14.4075337,7.50639473 C11.7075337,8.20639473 12.0075337,12.0063947 14.5075337,11.5063947 C15.0075337,11.4063947 15.4075337,11.4063947 15.8075337,11.3063947 C15.2075337,11.9063947 14.6075337,12.7063947 14.3075337,13.6063947 C13.4075337,12.9063947 12.6075337,12.2063947 11.9075337,11.3063947 C10.6075337,10.1063947 10.6075337,8.30639473 12.3075337,6.80639473 C13.2075337,6.00639473 14.6075337,5.40639473 16.0075337,4.90639473 C16.5075337,4.70639473 16.4075337,3.70639473 15.8075337,3.70639473 C14.3075337,3.60639473 12.7075337,3.50639473 10.9075337,4.10639473 C3.20753373,6.40639473 4.80753373,15.6063947 10.2075337,22.0063947 C9.70753373,23.7063947 9.40753373,25.7063947 9.30753373,27.9063947 C8.50753373,28.6063947 7.00753373,29.9063947 7.40753373,30.4063947 C0.907533729,37.0063947 -2.09246627,49.5063947 1.60753373,53.5063947 C-0.392466271,56.4063947 2.30753373,56.9063947 2.30753373,55.3063947 C2.30753373,55.2063947 2.40753373,54.5063947 2.50753373,53.8063947 C3.20753373,54.2063947 3.70753373,54.3063947 3.90753373,54.4063947 C3.10753373,57.3063947 5.50753373,57.2063947 5.10753373,55.7063947 C5.10753373,55.6063947 5.00753373,55.0063947 5.00753373,54.5063947 C5.40753373,54.5063947 6.10753373,54.3063947 6.50753373,54.2063947 C6.40753373,57.4063947 9.90753373,56.0063947 8.30753373,54.9063947 C8.20753373,54.8063947 7.50753373,54.5063947 7.20753373,53.9063947 C7.90753373,53.5063947 8.40753373,53.1063947 8.80753373,52.4063947 C9.20753373,52.8063947 9.40753373,53.3063947 9.60753373,53.8063947 C10.2075337,55.6063947 11.3075337,54.9063947 11.3075337,53.6063947 C11.3075337,52.3063947 10.4075337,51.2063947 9.20753373,50.8063947 C9.10753373,48.7063947 6.10753373,46.7063947 7.60753373,40.5063947 C8.00753373,39.0063947 8.30753373,37.9063947 9.00753373,36.7063947 C9.40753373,36.8063947 9.80753373,36.5063947 10.3075337,35.9063947 C10.3075337,35.9063947 10.4075337,35.8063947 10.4075337,35.8063947 C11.8075337,40.7063947 14.2075337,46.2063947 17.3075337,50.3063947 C15.9075337,57.3063947 17.1075337,56.8063947 18.0075337,55.6063947 C17.8075337,58.0063947 18.5075337,60.0063947 19.1075337,62.5063947 C17.4075337,59.4063947 12.7075337,60.5063947 12.0075337,64.0063947 L20.1075337,64.0063947 C20.8075337,64.1063947 21.3075337,63.5063947 21.1075337,62.8063947 C20.8075337,60.0063947 22.0075337,59.0063947 22.9075337,57.1063947 C23.9075337,58.2063947 25.2075337,57.7063947 25.4075337,56.5063947 C26.8075337,56.9063947 28.1075337,56.8063947 29.4075337,56.5063947 C29.6075337,57.7063947 30.9075337,58.2063947 31.9075337,57.1063947 C32.9075337,59.0063947 34.0075337,59.9063947 33.7075337,62.8063947 C33.5075337,63.4063947 34.1075337,64.0063947 34.7075337,64.0063947 L42.7075337,64.0063947 C42.1075337,60.5063947 37.3075337,59.3063947 35.6075337,62.5063947 C36.2075337,60.0063947 36.9075337,57.9063947 36.7075337,55.6063947 C37.6075337,56.8063947 38.8075337,57.4063947 37.4075337,50.3063947 C40.5075337,46.2063947 42.9075337,40.7063947 44.3075337,35.8063947 C44.6075337,36.2063947 45.1075337,36.8063947 45.7075337,36.7063947 C46.4075337,37.9063947 46.8075337,39.0063947 47.1075337,40.5063947 C48.6075337,46.8063947 45.5075337,48.7063947 45.5075337,50.8063947 C44.3075337,51.1063947 43.4075337,52.2063947 43.4075337,53.6063947 C43.4075337,54.8063947 44.5075337,55.6063947 45.1075337,53.8063947 C45.3075337,53.3063947 45.5075337,52.8063947 45.9075337,52.4063947 C46.3075337,53.1063947 46.9075337,53.5063947 47.5075337,53.9063947 C47.2075337,54.5063947 46.6075337,54.8063947 46.4075337,54.9063947 C44.9075337,56.1063947 48.3075337,57.4063947 48.2075337,54.2063947 C48.6075337,54.4063947 49.4075337,54.5063947 49.8075337,54.5063947 C49.8075337,55.1063947 49.7075337,55.6063947 49.7075337,55.7063947 C49.4075337,57.2063947 51.8075337,57.2063947 50.9075337,54.4063947 C51.0075337,54.4063947 51.6075337,54.3063947 52.3075337,53.8063947 C52.4075337,54.4063947 52.5075337,55.1063947 52.5075337,55.3063947 C52.5075337,56.9063947 55.2075337,56.4063947 53.1075337,53.2063947 C57.3075337,49.0063947 54.1075337,36.5063947 47.7075337,30.0063947 Z M35.0075337,12.8063947 C37.4075337,12.8063947 39.3075337,14.8063947 39.3075337,17.3063947 C39.3075337,19.8063947 37.4075337,21.8063947 35.0075337,21.8063947 C32.6075337,21.8063947 30.7075337,19.8063947 30.7075337,17.3063947 C30.7075337,14.8063947 32.7075337,12.8063947 35.0075337,12.8063947 Z M21.4075337,10.1063947 C24.5075337,10.1063947 27.0075337,12.7063947 27.0075337,16.0063947 C27.0075337,19.3063947 24.5075337,21.9063947 21.4075337,21.9063947 C18.3075337,21.9063947 15.8075337,19.3063947 15.8075337,16.0063947 C15.8075337,12.7063947 18.3075337,10.1063947 21.4075337,10.1063947 Z M40.2075337,33.7063947 C37.5075337,37.6063947 33.0075337,39.8063947 27.7075337,39.8063947 L27.6075337,39.8063947 C19.5075337,39.8063947 15.8075337,35.1063947 14.6075337,33.1063947 C13.1075337,30.7063947 12.8075337,28.0063947 13.6075337,26.4063947 C14.7075337,24.3063947 17.4075337,24.0063947 20.8075337,25.4063947 C25.1075337,27.2063947 30.1075337,27.2063947 34.4075337,25.4063947 C36.6075337,24.5063947 38.5075337,24.4063947 39.9075337,24.9063947 C40.8075337,25.3063947 41.4075337,25.9063947 41.8075337,26.8063947 C42.5075337,28.6063947 41.9075337,31.3063947 40.2075337,33.7063947 Z" id="Shape" stroke="#080808" fill="url(#radialGradient-1)"></path>
                    <path d="M39.9,25.9 C39.5,25.7 38.9,25.6 38,25.6 C38.2,26.2 38.6,27.2 38.3,27.6 C37.5,28.6 35.8,29.6 34.2,28.8 C33.8,28.6 33.6,27.6 33.5,26.9 C31.5,27.5 29.4,27.8 27.3,27.7 C27.4,28.3 27.6,29.4 27.3,29.7 C26.3,30.7 23.8,30.3 23,29.1 C22.8,28.7 23.1,27.7 23.3,27.1 C23,27 22.7,27 22.4,26.9 C22.3,27.5 22.1,28.6 21.7,28.8 C20.1,29.6 18.4,28.6 17.6,27.6 C17.3,27.3 17.7,26.2 17.9,25.6 C17.8,25.6 17.6,25.6 17.5,25.6 C16.2,25.6 15.3,26.1 14.8,26.9 C14.1,28.2 14.5,30.5 15.7,32.6 C16.5,33.9 18.5,36.6 22.4,37.9 C22.4,37.2 22.4,35.9 22.8,35.7 C23.6,35.2 25.1,35.6 25.8,36.5 C26.1,36.9 25.9,38.1 25.7,38.7 C26.4,38.8 27,38.8 27.8,38.8 C27.8,38.8 27.8,38.8 27.8,38.8 L27.8,38.8 C27.8,38.8 27.8,38.8 27.8,38.8 C28.4,38.8 28.9,38.8 29.4,38.7 C29.3,38 29.3,36.8 29.7,36.4 C30.7,35.3 32.4,34.8 33.5,35.3 C33.9,35.5 34.1,36.7 34.2,37.4 C37.1,36.1 38.8,34.1 39.5,33 C41.2,30.6 41.4,28.2 41,27 C41,26.7 40.5,26.2 39.9,25.9 Z" id="Path" fill="#000000"></path>
                    <path d="M22.9,18.5 C24.1,18.5 25.2,17.5 25.2,16.2 C25.2,15.9 25.1,15.7 25.1,15.4 C24.9,15.6 24.6,15.8 24.3,15.8 C23.7,15.8 23.3,15.4 23.3,14.8 C23.3,14.5 23.4,14.3 23.6,14.1 C23.3,14 23.1,14 22.9,14 C21.7,14 20.6,15 20.6,16.3 C20.6,17.6 21.7,18.5 22.9,18.5 Z M22.3,16.3 C22.6,16.3 22.9,16.6 22.9,16.9 C22.9,17.2 22.6,17.5 22.3,17.5 C22,17.5 21.7,17.2 21.7,16.9 C21.7,16.6 21.9,16.3 22.3,16.3 Z" id="Shape" fill="#000000"></path>
                    <path d="M34.6,19 C35.4,19 36.1,18.3 36.1,17.5 C36.1,16.7 35.4,16 34.6,16 C34.5,16 34.3,16 34.2,16.1 C34.3,16.2 34.4,16.4 34.4,16.6 C34.4,17 34.1,17.3 33.7,17.3 C33.5,17.3 33.3,17.2 33.2,17.1 C33.1,17.3 33.1,17.4 33.1,17.6 C33.1,18.3 33.8,19 34.6,19 Z M35,17.6 C35.2,17.6 35.4,17.8 35.4,18 C35.4,18.2 35.2,18.4 35,18.4 C34.8,18.4 34.6,18.2 34.6,18 C34.6,17.8 34.8,17.6 35,17.6 Z" id="Shape" fill="#000000"></path>
                </g>
            </g>
        </g>
    </g>
</svg>