<?xml version="1.0" encoding="UTF-8"?>
<svg width="67px" height="60px" viewBox="0 0 67 60" version="1.1" xmlns="http://www.w3.org/2000/svg" xmlns:xlink="http://www.w3.org/1999/xlink">
    <title>HappyMonster</title>
    <defs>
        <radialGradient cx="50%" cy="0%" fx="50%" fy="0%" r="100%" gradientTransform="translate(0.500000,0.000000),scale(0.892514,1.000000),rotate(90.000000),translate(-0.500000,-0.000000)" id="radialGradient-1">
            <stop stop-color="#003DFD" offset="0%"></stop>
            <stop stop-color="#3FA9FF" offset="100%"></stop>
        </radialGradient>
    </defs>
    <g id="Page-1" stroke="none" stroke-width="1" fill="none" fill-rule="evenodd">
        <g id="MonsterIcons" transform="translate(-477.000000, -196.000000)" fill-rule="nonzero">
            <g id="HappyMonster" transform="translate(477.000000, 196.000000)">
                <g id="Group" transform="translate(2.000000, 1.000000)">
                    <path d="M24.1,8.8817842e-16 C26.5199157,8.8817842e-16 28.7875576,0.736186432 30.6773877,1.99607317 C32.365715,3.12162473 33.7521317,4.66524876 34.6768906,6.47413167 C36.4323171,4.05921862 39.2435431,2.5 42.4,2.5 C44.7115118,2.5 46.8133573,3.31115951 48.4338105,4.67085018 C49.7805938,5.80090968 50.7952474,7.31033071 51.3210224,9.05007738 C51.6613642,8.30219164 51.777299,7.45932017 51.9058142,6.62397141 C52.1374739,5.34880868 52.625733,4.34446376 53.5345509,3.77607883 C54.7138369,2.99740662 56.3431113,3.03429512 58.0297035,3.83645483 C59.5775701,4.57263524 61.1669141,5.9489834 62.4160251,7.8226499 C63.6884581,9.73129937 64.3883176,11.7759274 64.4650784,13.5030464 C64.5054517,14.4114446 64.374128,15.2356819 64.074573,15.919672 C63.7727854,16.6087596 63.3019653,17.1603003 62.6604515,17.5272342 C61.6400312,18.2006692 60.5068347,18.3293245 59.1418861,17.8743416 C58.8301746,17.7704378 58.490313,17.6661901 58.1375804,17.5778299 C59.4720712,20.8547386 59.8731986,24.080855 59.4973907,27.6510144 C58.7078523,35.3490136 54.663221,42.5700553 49.0315326,47.5424305 L49.0315326,47.5424305 L48.4403745,52.0265623 C48.8296855,52.2556092 49.3029744,52.5820671 49.7123475,52.9095656 C50.6669348,53.7441839 51.5638848,54.8592115 51.9241802,55.6923945 C52.1436039,56.1998117 52.1605069,56.6222947 52.0398822,56.9098614 C50.5265889,57.4273139 49.4645453,57.031892 48.582161,56.3919539 C48.5675437,56.636048 48.5243644,56.8638924 48.4520923,57.0646481 C48.3363175,57.3862447 48.1491382,57.6464252 47.897925,57.8267676 C47.6619668,57.9961587 47.3661288,58.1 47,58.1 C46.4653056,58.1 45.9808419,57.8897497 45.5667214,57.5377472 C45.3585592,57.3608094 45.1685929,57.1471163 44.9999375,56.9103769 C44.8313596,57.1471698 44.6414147,57.3608315 44.4332786,57.5377472 C44.0191581,57.8897497 43.5346944,58.1 43,58.1 C42.6338712,58.1 42.3380332,57.9961587 42.102075,57.8267676 C41.8508618,57.6464252 41.6636825,57.3862447 41.5479077,57.0646481 C41.479189,56.8737628 41.4367725,56.658387 41.4200473,56.4278917 C40.6234659,57.061414 39.7536348,57.5 39,57.5 C37.6387259,56.7049269 37.8133011,56.2749444 37.9647766,55.807895 C38.2377278,54.9662953 39.047342,53.8065173 39.8336033,52.9597745 L39.727,53.076 L39.3571492,53.2095923 C37.0891955,53.9958056 34.7029133,54.4345559 32.2637842,54.4932233 L31.7,54.5 C29.141451,54.5 26.5826855,54.0571783 24.1033645,53.2101276 L23.68,53.06 L23.7313957,53.1068916 C24.529222,53.8467949 25.2593994,54.7564985 25.6317267,55.4953743 L25.7241802,55.6923945 C25.9436039,56.1998117 25.9605069,56.6222947 25.8398822,56.9098614 C24.3069357,57.4310822 23.283596,57.0201308 22.385449,56.3605798 C22.3760393,56.6287396 22.333254,56.8741824 22.2569559,57.0861216 C22.141516,57.4067882 21.9533374,57.6616775 21.6991597,57.8377158 C21.4641387,58.0004865 21.1681832,58.1 20.8,58.1 C20.2653056,58.1 19.7808419,57.8897497 19.3667214,57.5377472 C19.1585592,57.3608094 18.9685929,57.1471163 18.7999375,56.9103769 C18.6313596,57.1471698 18.4414147,57.3608315 18.2332786,57.5377472 C17.8191581,57.8897497 17.3346944,58.1 16.8,58.1 C16.4338712,58.1 16.1380332,57.9961587 15.902075,57.8267676 C15.6508618,57.6464252 15.4636825,57.3862447 15.3479077,57.0646481 C15.2775065,56.8690892 15.2347113,56.6478258 15.218897,56.4109829 C14.3913252,57.0535967 13.4842893,57.5 12.8,57.5 C11.4396999,56.6148249 11.6421167,56.1543077 11.8619484,55.6459468 C12.2213154,54.8149106 13.1008614,53.7221519 14.0799078,52.9158894 C14.5146751,52.5535833 14.9002857,52.2904909 15.2363388,52.0923034 L15.2363388,52.0923034 L15.106972,47.836933 C9.30303744,42.8590391 5.20901986,35.5069195 4.30260928,27.6510144 C3.93095262,24.027362 4.40457501,20.6572426 5.64036103,17.6922546 C5.43562583,17.7472421 5.23117996,17.8075124 5.02014821,17.8694433 C3.2185276,18.3377661 2.00224497,18.2711021 1.10877962,17.6067257 C0.518185441,17.208513 0.0864772795,16.6294371 -0.181290702,15.9143991 C-0.44417449,15.2124037 -0.547968738,14.3753561 -0.48754678,13.4589564 C-0.373644377,11.7314367 0.325401027,9.71051064 1.58397485,7.8226499 C2.82986785,5.95381041 4.41426738,4.57972981 5.94558973,3.84242645 C6.77353322,3.44378699 7.58878453,3.22976969 8.33379585,3.212187 C9.10256425,3.19404363 9.80014995,3.38263869 10.3785811,3.78453701 C11.2881882,4.35943251 11.8769375,5.37669786 11.9962555,6.63614429 C12.1044111,7.28453258 12.2125352,7.90344005 12.3372238,8.50899783 C13.4573307,6.07675395 14.7947384,4.16018291 16.5419004,2.72501412 C18.6093735,1.02673266 21.2521277,-6.66133815e-16 24.1,-6.66133815e-16 Z" id="Shape" stroke="#000000" fill="#FFFFFF"></path>
                    <path d="M62.0043377,8.6 C59.6043377,5 55.9043377,3.3 53.8043377,4.7 C53.0043377,5.2 52.6043377,6.1 52.4043377,7.2 C52.2043377,8.5 52.0043377,9.8 51.6043377,11.1 C51.4043377,11 51.3043377,10.9 51.1043377,10.8 C50.4043377,6.6 46.8043377,3.5 42.4043377,3.5 C39.1043377,3.5 36.2043377,5.3 34.6043377,8 C32.9043377,3.9 28.8043377,1 24.1043377,1 C18.6043377,1 13.9043377,5 12.9043377,10.2 C12.7043377,10.3 12.4043377,10.5 12.2043377,10.6 C11.9043377,9.5 11.7043377,8.4 11.5043377,7.2 C11.4043377,6.1 10.9043377,5.2 10.1043377,4.7 C8.10433769,3.3 4.40433769,5 2.00433769,8.6 C-0.395662314,12.2 -0.695662314,16.3 1.40433769,17.7 C2.20433769,18.3 3.30433769,18.3 4.50433769,18 C5.20433769,17.8 5.80433769,17.6 6.50433769,17.5 C5.00433769,20.6 4.40433769,24.2 4.80433769,28.1 C5.70433769,35.9 9.80433769,43.2 15.6043377,48.1 L15.9043377,52.8 C15.5043377,53 15.0043377,53.3 14.4043377,53.8 C12.7043377,55.2 11.3043377,57.5 12.8043377,57.5 C13.7043377,57.5 15.0043377,56.6 15.9043377,55.6 C15.5043377,56.8 15.7043377,58.1 16.8043377,58.1 C17.7043377,58.1 18.4043377,57.3 18.8043377,56.4 C19.2043377,57.3 19.9043377,58.1 20.8043377,58.1 C21.9043377,58.1 22.1043377,56.9 21.7043377,55.6 C22.7043377,56.6 23.9043377,57.5 24.8043377,57.5 C26.3043377,57.5 24.8043377,55.2 23.2043377,53.8 C22.7043377,53.4 22.2043377,53 21.7043377,52.8 C21.7043377,52.6 21.7043377,52.4 21.7043377,52.2 C24.9043377,53.7 28.3043377,54.5 31.7043377,54.5 C35.2043377,54.5 38.6043377,53.7 41.7043377,52.2 C41.7043377,52.4 41.7043377,52.6 41.7043377,52.8 C41.3043377,53 40.8043377,53.3 40.2043377,53.8 C38.9043377,55.2 37.5043377,57.5 39.0043377,57.5 C40.0043377,57.5 41.2043377,56.6 42.1043377,55.6 C41.7043377,56.8 41.9043377,58.1 43.0043377,58.1 C43.9043377,58.1 44.6043377,57.3 45.0043377,56.4 C45.4043377,57.3 46.1043377,58.1 47.0043377,58.1 C48.1043377,58.1 48.3043377,56.8 47.9043377,55.6 C48.8043377,56.6 50.1043377,57.5 51.0043377,57.5 C52.5043377,57.5 51.0043377,55.2 49.4043377,53.8 C48.9043377,53.4 48.3043377,53 47.9043377,52.8 L48.2043377,48.1 C54.0043377,43.2 58.2043377,35.9 59.0043377,28.1 C59.4043377,24.3 58.9043377,20.9 57.5043377,17.8 C57.4043377,17.7 57.4043377,17.5 57.3043377,17.4 C58.0043377,17.5 58.7043377,17.7 59.3043377,17.9 C60.5043377,18.3 61.5043377,18.2 62.4043377,17.6 C64.7043377,16.3 64.4043377,12.2 62.0043377,8.6 Z M42.2043377,7 C45.4043377,7 48.0043377,9.6 48.0043377,12.8 C48.0043377,16 45.4043377,18.6 42.2043377,18.6 C39.0043377,18.6 36.4043377,16 36.4043377,12.8 C36.4043377,9.6 39.0043377,7 42.2043377,7 Z M24.4043377,4.7 C28.8043377,4.7 32.3043377,8.2 32.3043377,12.6 C32.3043377,17 28.8043377,20.5 24.4043377,20.5 C20.0043377,20.5 16.5043377,17 16.5043377,12.6 C16.5043377,8.2 20.0043377,4.7 24.4043377,4.7 Z M1.80433769,14.5 C0.704337686,13.7 1.00433769,11.3 2.50433769,9 C4.10433769,6.8 6.20433769,5.5 7.30433769,6.3 C8.40433769,7.1 8.10433769,9.5 6.60433769,11.7 C5.10433769,14 2.90433769,15.2 1.80433769,14.5 Z M17.0043377,36.2 C15.9043377,34 15.8043377,32 16.7043377,30.6 C19.2043377,26.7 25.3043377,26.5 31.2043377,26.3 L31.9043377,26.3 L32.6043377,26.3 C38.5043377,26.5 44.7043377,26.7 47.1043377,30.6 C48.0043377,32 48.0043377,34 46.8043377,36.2 C44.7043377,40.1 39.3043377,44.1 31.8043377,44.2 C24.5043377,44.1 19.1043377,40.1 17.0043377,36.2 Z M62.2043377,14.5 C61.1043377,15.3 58.9043377,14 57.4043377,11.8 C55.9043377,9.5 55.5043377,7.1 56.7043377,6.4 C57.8043377,5.6 60.0043377,6.9 61.5043377,9.1 C63.0043377,11.3 63.3043377,13.7 62.2043377,14.5 Z" id="Shape" fill="url(#radialGradient-1)"></path>
                    <path d="M46.4,30.6 L46.4,30.6 C45.3,28.8 43.1,27.9 40.5,27.4 C40.5,28.3 40.4,30 39.9,30.4 C39.2,30.9 37.9,30.8 37.3,30.1 C36.9,29.6 37.2,27.9 37.4,27.1 C36.5,27 35.6,27 34.6,26.9 C34.8,27.8 35.2,29.5 34.8,29.9 C34.2,30.6 32.5,30.5 31.9,29.8 C31.5,29.3 31.6,27.6 31.7,26.7 L31.2,26.7 C30.9,26.7 30.6,26.7 30.2,26.7 C30.3,27.6 30.3,29.3 29.9,29.7 C29.3,30.3 27.9,30.5 27.3,29.8 C26.9,29.4 27.1,27.7 27.2,26.8 C26.9,26.8 26.6,26.8 26.3,26.9 C26.5,27.7 27,29.4 26.6,29.9 C25.9,30.9 24.1,31 23.2,30.4 C22.7,30.1 22.5,28.3 22.5,27.5 C20.3,28 18.5,28.9 17.5,30.5 C16.7,31.6 16.9,33.3 17.8,35.1 C18.7,36.8 20.3,38.5 22.4,39.8 C22.4,38.8 22.5,37 23,36.7 C24.1,36.2 25.6,37.3 26.3,38.4 C26.6,39 26.3,40.7 26.2,41.5 C26.9,41.7 27.6,41.9 28.3,42.1 C28.1,41.2 27.7,39.4 28.1,39 C28.8,38.3 30.3,38.6 31,39.4 C31.4,39.9 31.3,41.6 31.2,42.5 C31.5,42.5 31.7,42.5 32,42.5 C32.2,42.5 32.3,42.5 32.5,42.5 C32.4,41.6 32.4,39.9 32.8,39.4 C33.5,38.7 34.9,38.4 35.6,39 C36.1,39.4 35.8,41.2 35.7,42.1 C36.1,42 36.4,41.9 36.8,41.8 C36.6,41 36.1,39.3 36.5,38.8 C37.2,37.7 38.8,36.9 39.8,37.4 C40.3,37.7 40.5,39.4 40.5,40.4 C43.1,39 45.1,37 46.1,35.1 C47,33.4 47.2,31.7 46.4,30.6 Z" id="Path" fill="#000000"></path>
                    <path d="M24.6,14 C26.1,14 27.3,12.8 27.3,11.3 C27.3,11 27.2,10.7 27.1,10.4 C26.9,10.7 26.6,10.9 26.2,10.9 C25.6,10.9 25.1,10.4 25.1,9.8 C25.1,9.4 25.4,9 25.7,8.8 C25.3,8.6 24.9,8.5 24.5,8.5 C23,8.5 21.8,9.7 21.8,11.2 C21.8,12.7 23.1,14 24.6,14 Z M23.6,10.9 C24.1,10.9 24.4,11.3 24.4,11.7 C24.4,12.1 24,12.5 23.6,12.5 C23.1,12.5 22.8,12.1 22.8,11.7 C22.8,11.3 23.2,10.9 23.6,10.9 Z" id="Shape" fill="#000000"></path>
                    <path d="M42,14 C43.1,14 44,13.1 44,12 C44,11.8 44,11.6 43.9,11.4 C43.8,11.6 43.5,11.8 43.2,11.8 C42.8,11.8 42.4,11.5 42.4,11 C42.4,10.7 42.6,10.4 42.9,10.3 C42.6,10.1 42.3,10 42,10 C40.9,10 40,10.9 40,12 C40,13.1 40.9,14 42,14 Z M41.3,11.8 C41.6,11.8 41.9,12.1 41.9,12.4 C41.9,12.7 41.6,13 41.3,13 C41,13 40.7,12.7 40.7,12.4 C40.7,12 41,11.8 41.3,11.8 Z" id="Shape" fill="#000000"></path>
                </g>
            </g>
        </g>
    </g>
</svg>