<?xml version="1.0" encoding="UTF-8"?>
<svg width="1024px" height="136px" viewBox="0 0 1024 136" version="1.1" xmlns="http://www.w3.org/2000/svg" xmlns:xlink="http://www.w3.org/1999/xlink">
    <title>MonsterMatch</title>
    <defs>
        <filter x="-4.5%" y="-16.3%" width="110.1%" height="132.6%" filterUnits="objectBoundingBox" id="filter-1">
            <feGaussianBlur stdDeviation="5" in="SourceGraphic"></feGaussianBlur>
        </filter>
        <filter x="-4.5%" y="-16.3%" width="110.1%" height="132.6%" filterUnits="objectBoundingBox" id="filter-2">
            <feGaussianBlur stdDeviation="5" in="SourceGraphic"></feGaussianBlur>
        </filter>
        <radialGradient cx="50%" cy="55.7659647%" fx="50%" fy="55.7659647%" r="226.167629%" gradientTransform="translate(0.500000,0.557660),scale(0.227723,1.000000),translate(-0.500000,-0.557660)" id="radialGradient-3">
            <stop stop-color="#E82C2C" offset="0%"></stop>
            <stop stop-color="#FF7D2B" offset="100%"></stop>
        </radialGradient>
        <path d="M30.8437499,1.18933909 C31.2437499,0.989339093 31.8437499,0.889339093 32.2437499,1.18933909 C32.4437499,1.38933909 32.5437499,1.68933909 32.5437499,1.98933909 C32.5437499,2.18933909 32.4437499,2.48933909 32.3437499,2.78933909 C31.6437499,4.98933909 30.9437499,7.28933908 31.2437499,9.58933908 C32.2437499,7.08933908 33.7437499,4.88933909 35.7437499,3.08933909 C36.7437499,2.18933909 37.8437499,1.38933909 39.1437499,1.08933909 C39.6437499,0.989339093 40.0437499,0.989339093 40.4437499,1.08933909 C40.8437499,1.18933909 41.2437499,1.38933909 41.4437499,1.78933909 C41.7437499,2.28933909 41.6437499,2.88933909 41.3437499,3.38933909 C41.0437499,3.88933909 40.5437499,4.28933909 40.1437499,4.58933909 C39.1437499,5.28933909 38.2437499,5.88933908 37.2437499,6.58933908 C36.8437499,6.88933908 36.3437499,7.28933908 35.7437499,7.78933908 C35.6437499,7.88933908 35.5437499,8.08933908 35.3437499,8.38933908 C36.0437499,8.18933908 39.2437499,8.18933908 40.1437499,8.38933908 C41.4437499,8.08933908 41.9437499,8.38933908 40.4437499,9.68933908 C40.4437499,9.68933908 40.5437499,9.78933908 40.6437499,9.78933908 C41.2437499,9.72267241 42.0314042,9.70538846 42.8388117,9.73090286 L43.1421874,9.74246408 C45.8749999,9.86433908 48.5937499,10.4643391 44.8437499,11.2893391 C44.9437499,11.3560057 46.0215277,11.9560057 47.1659721,12.6819317 L47.4034061,12.8337864 C49.6227564,14.2653729 51.8563936,16.0617529 47.5437499,15.2893391 C49.6437499,16.7893391 55.3437499,23.0893391 50.4437499,21.0893391 C51.0437499,22.3893391 50.9437499,22.1893391 51.0437499,22.2893391 C52.5437499,25.589339 57.9437499,31.789339 60.1437499,44.089339 C60.5437499,46.389339 61.2437499,50.289339 60.6437499,52.489339 C61.2437499,53.189339 62.0437499,54.989339 61.8437499,55.689339 C61.4437499,55.989339 60.6437499,55.389339 60.0437499,54.689339 C59.7437499,55.089339 59.4437499,55.389339 59.0437499,55.689339 C59.2437499,56.489339 58.8437499,58.689339 58.2437499,58.689339 C57.8437499,58.689339 57.4437499,57.289339 57.4437499,56.289339 C57.0437499,56.289339 56.7437499,56.189339 56.4437499,56.189339 C56.1437499,57.089339 55.2437499,58.589339 54.7437499,58.389339 C54.2437499,58.189339 54.6437499,56.389339 54.8437499,55.789339 C54.5437499,55.689339 54.0437499,55.389339 53.6437499,54.989339 C53.0437499,55.789339 51.9437499,56.489339 51.6437499,56.189339 C51.2437499,55.789339 52.1437499,53.989339 52.6437499,53.589339 C51.4437499,50.489339 54.5437499,48.389339 52.4437499,37.489339 C52.2437499,37.489339 51.9437499,37.289339 51.5437499,36.789339 C51.2437499,36.389339 50.9437499,35.789339 50.4437499,34.889339 C50.4822114,35.0047236 50.5058801,35.1940728 50.526135,35.4403176 L50.5495305,35.7620291 C50.572744,36.1088657 50.5975961,36.5278006 50.6437499,36.989339 C50.8437499,43.489339 50.1437499,46.789339 47.8437499,40.689339 C47.8437499,40.889339 47.7437499,41.289339 47.7437499,41.589339 C47.5437499,44.289339 46.0437499,48.889339 45.6437499,49.189339 C45.4437499,49.389339 45.4437499,48.389339 46.0437499,45.589339 C45.7437499,46.289339 45.1437499,47.289339 44.4437499,48.389339 C45.1437499,49.989339 45.6437499,51.789339 45.9437499,53.989339 C45.6437499,53.489339 45.4437499,52.889339 45.1437499,52.389339 C45.7437499,55.089339 45.8437499,58.289339 45.2437499,61.789339 C45.0437499,62.889339 44.7437499,64.089339 44.1437499,64.789339 C43.4437499,65.389339 42.3437499,65.189339 42.0437499,63.889339 C41.8437499,64.789339 41.1437499,65.489339 40.5437499,65.289339 C39.9437499,65.189339 39.4437499,64.289339 39.4437499,63.289339 C38.6437499,65.189339 37.4437499,65.289339 37.0437499,64.089339 L37.0437499,64.089339 L37.0118542,63.9736585 C36.7691937,63.0047236 37.1168269,61.8508774 38.9437499,55.889339 C38.7437499,56.189339 38.6437499,56.489339 38.4437499,56.789339 L38.4437499,56.789339 L38.4437499,56.089339 C38.2437499,56.189339 38.1437499,56.389339 38.0437499,56.589339 C38.1437499,55.789339 38.2437499,55.089339 38.3437499,54.389339 C37.9437499,54.789339 37.4437499,55.389339 36.9437499,55.589339 C36.9437499,55.689339 36.8437499,55.689339 36.7437499,55.689339 L36.7437499,55.689339 L36.5437499,55.689339 C36.0437499,55.489339 36.2437499,54.289339 36.2437499,53.789339 C32.9437499,57.689339 30.0437499,58.889339 25.74375,53.789339 C25.84375,54.389339 25.94375,55.889339 25.34375,55.689339 C25.24375,55.689339 25.04375,55.589339 25.04375,55.589339 C25.04375,55.589339 24.94375,55.489339 24.84375,55.489339 C24.74375,55.389339 24.04375,54.889339 23.64375,54.389339 C23.74375,55.089339 23.84375,55.789339 23.94375,56.589339 C23.74375,56.389339 23.64375,56.289339 23.54375,56.089339 C23.64375,56.289339 23.64375,56.589339 23.64375,56.789339 C23.44375,56.489339 23.34375,56.189339 23.14375,55.889339 C23.64375,57.489339 24.14375,59.289339 24.74375,61.289339 C25.04375,62.189339 25.34375,63.289339 25.04375,64.089339 C24.84375,64.789339 24.34375,64.989339 23.84375,64.789339 C23.34375,64.589339 22.94375,63.989339 22.64375,63.289339 C22.64375,64.289339 22.14375,65.189339 21.54375,65.289339 C20.94375,65.489339 20.24375,64.789339 20.04375,63.889339 C19.74375,65.189339 18.64375,65.489339 17.94375,64.789339 C17.34375,64.189339 17.04375,62.889339 16.84375,61.789339 C16.24375,58.289339 16.34375,54.989339 16.94375,52.389339 C16.74375,52.889339 16.44375,53.389339 16.14375,53.989339 C16.44375,51.789339 16.94375,49.989339 17.64375,48.389339 C16.94375,47.289339 16.34375,46.289339 16.04375,45.589339 C17.16575,51.529339 15.97907,48.975139 15.071174,45.545383 L14.989478,45.231387 L14.989478,45.231387 L14.90975,44.913839 C14.51675,43.319339 14.21375,41.639339 14.24375,40.589339 C13.34375,42.889339 12.74375,43.689339 12.34375,43.689339 C11.94375,43.689339 11.64375,42.889339 11.54375,41.789339 C11.24375,39.389339 11.44375,35.389339 11.54375,34.689339 C10.54375,36.589339 9.94374998,37.389339 9.54374998,37.389339 C7.84374999,46.689339 9.54374998,49.189339 9.64374998,51.489339 C9.64374998,52.189339 9.54374998,52.889339 9.34374998,53.389339 C9.84374998,53.789339 10.74375,55.589339 10.34375,55.989339 C9.94374998,56.289339 8.94374998,55.589339 8.34374999,54.789339 C8.04374999,55.089339 7.44374999,55.489339 7.14374999,55.589339 C7.34374999,56.089339 7.74374999,57.889339 7.24374999,58.189339 C6.74374999,58.389339 5.84374999,56.989339 5.54374999,55.989339 C5.14374999,56.089339 4.84374999,56.089339 4.54374999,56.089339 C4.54374999,57.089339 4.24374999,58.489339 3.74374999,58.489339 C3.14374999,58.389339 2.84374999,56.489339 2.94374999,55.489339 C2.54375,55.189339 2.24375,54.889339 1.94375,54.489339 C1.34375,55.189339 0.443749999,55.789339 0.14375,55.489339 C-0.25625,55.089339 0.24375,53.589339 0.843749998,52.789339 C0.943749998,52.689339 0.943749998,52.589339 1.04375,52.489339 C0.443749999,50.389339 1.04375,46.489339 1.44375,44.389339 C2.84374999,36.989339 5.54374999,30.089339 9.84374998,24.0893391 C10.24375,23.0893391 10.74375,22.0893391 11.04375,21.1893391 C7.85441665,22.4373391 9.32798109,19.9838635 11.364939,17.7950995 L11.6022396,17.5439503 C12.43991,16.6706191 13.34375,15.8653391 14.04375,15.3893391 C7.14374999,16.5893391 16.54375,11.4893391 16.64375,11.3893391 C11.54375,10.1893391 18.44375,9.68933908 20.84375,9.88933908 C20.94375,9.88933908 21.04375,9.78933908 21.14375,9.78933908 C19.74375,8.48933908 20.24375,8.18933908 21.44375,8.48933908 C22.24375,8.28933908 24.44375,8.28933908 25.64375,8.38933908 C25.04375,7.48933908 24.54375,6.58933908 24.54375,5.48933908 C24.54375,5.28933909 24.54375,5.08933909 24.64375,4.98933909 C24.84375,4.68933909 25.14375,4.68933909 25.44375,4.68933909 C26.24375,4.78933909 26.94375,5.28933909 27.54375,5.88933908 C28.04375,6.48933908 28.4437499,7.28933908 28.8437499,7.98933908 C29.3437499,8.68933908 29.8437499,9.28933908 30.4437499,9.78933908 L30.442,9.788 L30.2739655,9.56076558 C29.0671802,7.8588848 28.7041738,5.60382114 29.2619719,3.56582925 L29.3437499,3.28933909 C29.6437499,2.48933909 30.0437499,1.68933909 30.8437499,1.18933909 Z" id="path-4"></path>
        <radialGradient cx="50%" cy="0%" fx="50%" fy="0%" r="103.957374%" gradientTransform="translate(0.500000,0.000000),scale(1.000000,0.961933),rotate(90.000000),translate(-0.500000,-0.000000)" id="radialGradient-6">
            <stop stop-color="#FE4000" stop-opacity="0.5" offset="0%"></stop>
            <stop stop-color="#FAAE52" stop-opacity="0.5" offset="100%"></stop>
        </radialGradient>
        <path d="M60.8,52.4 C61.4,50.2 60.7,46.3 60.3,44 C58.1,31.7 52.7,25.5 51.2,22.2 C51.1,22.1 51.2,22.3 50.6,21 C55.5,23 49.8,16.7 47.7,15.2 C54.4,16.4 45.3,11.4 45,11.2 C50,10.1 43.5,9.4 40.8,9.7 C40.7,9.7 40.6,9.6 40.6,9.6 C42.1,8.3 41.6,8 40.3,8.3 C39.4,8.1 36.2,8.1 35.5,8.3 C35.7,8 35.8,7.8 35.9,7.7 C36.5,7.2 37,6.8 37.4,6.5 C38.4,5.8 39.3,5.2 40.3,4.5 C40.7,4.2 41.2,3.8 41.5,3.3 C41.8,2.8 41.9,2.2 41.6,1.7 C41.4,1.3 41,1.1 40.6,1 C40.2,0.9 39.8,0.9 39.3,1 C38,1.3 36.9,2.1 35.9,3 C33.9,4.8 32.4,7 31.4,9.5 C31.1,7.2 31.8,4.9 32.5,2.7 C32.6,2.4 32.7,2.1 32.7,1.9 C32.7,1.6 32.6,1.3 32.4,1.1 C32,0.8 31.4,0.9 31,1.1 C30.2,1.6 29.8,2.4 29.5,3.2 C28.8,5.4 29.2,7.9 30.6,9.7 C30,9.2 29.5,8.6 29,7.9 C28.6,7.2 28.2,6.4 27.7,5.8 C27.1,5.2 26.4,4.7 25.6,4.6 C25.3,4.6 25,4.6 24.8,4.9 C24.7,5 24.7,5.2 24.7,5.4 C24.7,6.5 25.2,7.4 25.8,8.3 C24.6,8.2 22.4,8.2 21.6,8.4 C20.4,8.1 19.9,8.4 21.3,9.7 C21.2,9.7 21.1,9.8 21,9.8 C18.6,9.6 11.7,10.1 16.8,11.3 C16.7,11.4 7.3,16.5 14.2,15.3 C11.7,17 6.6,22.9 11.2,21.1 C10.9,22 10.4,23 10,24 C5.7,30 3,36.9 1.6,44.3 C1.2,46.4 0.6,50.3 1.2,52.4 C1.1,52.5 1.1,52.6 1,52.7 C0.4,53.5 -0.1,55 0.3,55.4 C0.6,55.7 1.5,55.1 2.1,54.4 C2.4,54.8 2.7,55.1 3.1,55.4 C3,56.4 3.3,58.3 3.9,58.4 C4.4,58.4 4.7,57 4.7,56 C5,56 5.3,56 5.7,55.9 C6,56.9 6.9,58.3 7.4,58.1 C7.9,57.8 7.5,56 7.3,55.5 C7.6,55.4 8.2,55 8.5,54.7 C9.1,55.5 10.1,56.2 10.5,55.9 C10.9,55.5 10,53.7 9.5,53.3 C9.7,52.8 9.8,52.1 9.8,51.4 C9.7,49.1 8,46.6 9.7,37.3 L9.7,37.3 C10.1,37.3 10.7,36.5 11.7,34.6 C11.6,35.3 11.4,39.3 11.7,41.7 C11.8,42.8 12.1,43.6 12.5,43.6 C12.9,43.6 13.5,42.8 14.4,40.5 C14.3,44 17.9,54.5 16.2,45.5 C16.5,46.2 17.1,47.2 17.8,48.3 C17.1,49.9 16.6,51.7 16.3,53.9 C16.6,53.3 16.9,52.8 17.1,52.3 C16.5,54.9 16.4,58.2 17,61.7 C17.2,62.8 17.5,64.1 18.1,64.7 C18.8,65.4 19.9,65.1 20.2,63.8 C20.4,64.7 21.1,65.4 21.7,65.2 C22.3,65.1 22.8,64.2 22.8,63.2 C23.1,63.9 23.5,64.5 24,64.7 C24.5,64.9 25,64.7 25.2,64 C25.5,63.2 25.2,62.1 24.9,61.2 C24.3,59.2 23.8,57.4 23.3,55.8 C23.5,56.1 23.6,56.4 23.8,56.7 C23.8,56.5 23.8,56.2 23.7,56 C23.8,56.2 23.9,56.3 24.1,56.5 C24,55.7 23.9,55 23.8,54.3 C24.2,54.8 24.9,55.3 25,55.4 C25.1,55.4 25.2,55.5 25.2,55.5 C25.2,55.5 25.4,55.6 25.5,55.6 C26.1,55.8 26,54.3 25.9,53.7 C30.2,58.8 33.1,57.6 36.4,53.7 C36.4,54.2 36.2,55.4 36.7,55.6 C36.7,55.6 36.7,55.6 36.7,55.6 C36.7,55.6 36.9,55.6 36.9,55.6 C37,55.6 37.1,55.6 37.1,55.5 C37.1,55.5 37.1,55.5 37.1,55.5 C37.6,55.3 38.1,54.7 38.5,54.3 C38.4,55 38.3,55.7 38.2,56.5 C38.3,56.3 38.4,56.1 38.6,56 C38.6,56.2 38.6,56.5 38.6,56.7 C38.8,56.4 38.9,56.1 39.1,55.8 C37.2,62 36.9,63 37.2,64 C37.6,65.2 38.8,65.1 39.6,63.2 C39.6,64.2 40.1,65.1 40.7,65.2 C41.3,65.4 42,64.7 42.2,63.8 C42.5,65.1 43.6,65.3 44.3,64.7 C44.9,64 45.2,62.8 45.4,61.7 C46,58.2 45.9,55 45.3,52.3 C45.6,52.8 45.8,53.4 46.1,53.9 C45.8,51.7 45.3,49.9 44.6,48.3 C45.3,47.2 45.9,46.2 46.2,45.5 C45.6,48.3 45.6,49.3 45.8,49.1 C46.2,48.8 47.7,44.2 47.9,41.5 C47.9,41.2 48,40.8 48,40.6 C50.3,46.7 51,43.4 50.8,36.9 C50.7,35.9 50.7,35.1 50.6,34.8 C51.1,35.7 51.4,36.3 51.7,36.7 C52.1,37.2 52.4,37.4 52.6,37.4 C54.7,48.3 51.6,50.4 52.8,53.5 C52.3,53.9 51.4,55.7 51.8,56.1 C52.1,56.4 53.2,55.7 53.8,54.9 C54.2,55.3 54.7,55.6 55,55.7 C54.8,56.3 54.4,58.1 54.9,58.3 C55.4,58.5 56.3,57 56.6,56.1 C56.9,56.1 57.2,56.2 57.6,56.2 C57.6,57.2 58,58.6 58.4,58.6 C59,58.6 59.4,56.4 59.2,55.6 C59.6,55.3 59.9,55 60.2,54.6 C60.8,55.3 61.6,55.9 62,55.6 C62.2,54.9 61.4,53.1 60.8,52.4 Z M33.2,13.4 C34.7,11.9 37.1,11.9 38.5,13.4 C40,14.9 40,17.3 38.5,18.7 C37,20.2 34.6,20.2 33.2,18.7 C31.8,17.3 31.8,14.9 33.2,13.4 Z M23.5,13.4 C25,11.9 27.4,11.9 28.8,13.4 C30.3,14.9 30.3,17.3 28.8,18.7 C27.3,20.2 24.9,20.2 23.5,18.7 C22,17.3 22,14.9 23.5,13.4 Z M41.9,23.4 C41.1,24.6 40.2,25.7 39.1,26.5 C39.5,26.9 40.1,27.7 40.1,28.1 C40.1,28.8 39.3,29.6 38.6,29.6 C38.1,29.6 37.4,28.5 37,27.9 C36.8,28 36.6,28.1 36.5,28.1 C37,28.7 37.8,29.7 37.7,30.2 C37.6,30.9 36.4,31.5 35.7,31.2 C35.2,31 34.8,29.6 34.6,28.7 C33.4,29 32.1,29.2 30.8,29.2 C30.9,30.1 30.9,31.6 30.5,32.1 C29.7,32.8 27.9,32.5 27.4,31.6 C27.1,31.1 27.6,29.7 27.9,28.9 C27,28.7 26,28.3 25.2,27.9 C24.8,28.5 24.1,29.5 23.6,29.6 C22.9,29.7 22.1,28.8 22.1,28.1 C22.1,27.7 22.7,26.9 23.1,26.5 C22,25.6 21,24.6 20.2,23.3 C20,23.2 20,23.1 20,23.1 C20,23.1 20.3,23.4 20.8,23.9 C26.3,29.7 36.1,29.3 41.3,23.9 C41.8,23.4 42.1,23.1 42.1,23.1 C42.1,23.1 42,23.2 41.9,23.4 Z" id="path-7"></path>
        <radialGradient cx="50%" cy="0%" fx="50%" fy="0%" r="124.134498%" gradientTransform="translate(0.500000,0.000000),scale(1.000000,0.805578),rotate(90.000000),translate(-0.500000,-0.000000)" id="radialGradient-8">
            <stop stop-color="#B700FF" offset="0%"></stop>
            <stop stop-color="#F36BF3" offset="100%"></stop>
        </radialGradient>
        <radialGradient cx="50%" cy="0%" fx="50%" fy="0%" r="100%" gradientTransform="translate(0.500000,0.000000),scale(0.892514,1.000000),rotate(90.000000),translate(-0.500000,-0.000000)" id="radialGradient-9">
            <stop stop-color="#003DFD" offset="0%"></stop>
            <stop stop-color="#3FA9FF" offset="100%"></stop>
        </radialGradient>
        <radialGradient cx="50%" cy="0%" fx="50%" fy="0%" r="114.902512%" gradientTransform="translate(0.500000,0.000000),scale(1.000000,0.859225),rotate(90.000000),translate(-0.500000,-0.000000)" id="radialGradient-10">
            <stop stop-color="#C60101" offset="0%"></stop>
            <stop stop-color="#F354A8" offset="100%"></stop>
        </radialGradient>
        <radialGradient cx="50%" cy="0%" fx="50%" fy="0%" r="100.001446%" gradientTransform="translate(0.500000,0.000000),scale(1.000000,0.999986),rotate(90.000000),translate(-0.500000,-0.000000)" id="radialGradient-11">
            <stop stop-color="#0EAF15" offset="0%"></stop>
            <stop stop-color="#88D42F" offset="100%"></stop>
        </radialGradient>
    </defs>
    <g id="Page-1" stroke="none" stroke-width="1" fill="none" fill-rule="evenodd">
        <g id="Custom-Preset-6" transform="translate(0.000000, -120.000000)">
            <rect id="Rectangle" fill-opacity="0.5" fill="#EA8686" transform="translate(512.000000, 216.500000) scale(1, -1) translate(-512.000000, -216.500000) " x="0" y="214" width="1024" height="5"></rect>
            <rect id="Rectangle" fill-opacity="0.4" fill="#EA8686" transform="translate(512.000000, 210.500000) scale(1, -1) translate(-512.000000, -210.500000) " x="0" y="208" width="1024" height="5"></rect>
            <rect id="Rectangle" fill-opacity="0.3" fill="#EA8686" transform="translate(512.000000, 204.500000) scale(1, -1) translate(-512.000000, -204.500000) " x="0" y="202" width="1024" height="5"></rect>
            <rect id="Rectangle" fill-opacity="0.2" fill="#EA8686" transform="translate(512.000000, 200.000000) scale(1, -1) translate(-512.000000, -200.000000) " x="0" y="199" width="1024" height="2"></rect>
            <rect id="Rectangle" fill-opacity="0.6" fill="#EA8686" transform="translate(512.000000, 222.500000) scale(1, -1) translate(-512.000000, -222.500000) " x="0" y="220" width="1024" height="5"></rect>
            <rect id="Rectangle" fill-opacity="0.7" fill="#EA8686" transform="translate(512.000000, 228.500000) scale(1, -1) translate(-512.000000, -228.500000) " x="0" y="226" width="1024" height="5"></rect>
            <rect id="Rectangle" fill-opacity="0.8" fill="#EA8686" transform="translate(512.000000, 234.500000) scale(1, -1) translate(-512.000000, -234.500000) " x="0" y="232" width="1024" height="5"></rect>
            <rect id="Rectangle" fill-opacity="0.9" fill="#EA8686" transform="translate(512.000000, 240.500000) scale(1, -1) translate(-512.000000, -240.500000) " x="0" y="238" width="1024" height="5"></rect>
            <rect id="Rectangle" fill="#EA8686" transform="translate(512.000000, 245.000000) scale(1, -1) translate(-512.000000, -245.000000) " x="0" y="244" width="1024" height="2"></rect>
            <text id="MONSTER-MATCH" fill-rule="nonzero" filter="url(#filter-2)" font-family="Bangers-Regular, Bangers" font-size="72" font-weight="normal" fill="#FFFFFF">
                <tspan x="309" y="254">MONSTER MATCH</tspan>
            </text>
            <text id="MONSTER-MATCH" stroke="#202020" fill="url(#radialGradient-3)" fill-rule="nonzero" font-family="Bangers-Regular, Bangers" font-size="72" font-weight="normal">
                <tspan x="310" y="249">MONSTER MATCH</tspan>
            </text>
            <g id="Group" transform="translate(309.000000, 130.000000)">
                <mask id="mask-5" fill="white">
                    <use xlink:href="#path-4"></use>
                </mask>
                <use id="Shape" stroke="#000000" stroke-width="3" fill="#FFFFFF" fill-rule="nonzero" xlink:href="#path-4"></use>
                <path d="M25.8,17.9 C26.6,17.9 27.3,17.2 27.3,16.4 C27.3,16.3 27.3,16.2 27.2,16.1 C27.1,16.2 27,16.3 26.8,16.3 C26.5,16.3 26.2,16 26.2,15.7 C26.2,15.5 26.3,15.3 26.5,15.2 C26.3,15.1 26,15 25.7,15 C24.9,15 24.2,15.7 24.2,16.5 C24.3,17.2 25,17.9 25.8,17.9 Z M25.5,16.4 C25.7,16.4 25.8,16.5 25.8,16.7 C25.8,16.9 25.7,17 25.5,17 C25.3,17 25.2,16.9 25.2,16.7 C25.2,16.6 25.3,16.4 25.5,16.4 Z" id="Shape" fill="#000000" fill-rule="nonzero" mask="url(#mask-5)"></path>
                <path d="M36.1,17.9 C36.9,17.9 37.6,17.2 37.6,16.4 C37.6,16.3 37.6,16.2 37.5,16.1 C37.4,16.2 37.3,16.3 37.1,16.3 C36.8,16.3 36.5,16 36.5,15.7 C36.5,15.5 36.6,15.3 36.8,15.2 C36.6,15.1 36.3,15 36,15 C35.2,15 34.5,15.7 34.5,16.5 C34.6,17.2 35.3,17.9 36.1,17.9 Z M35.8,16.4 C36,16.4 36.1,16.5 36.1,16.7 C36.1,16.9 36,17 35.8,17 C35.6,17 35.5,16.9 35.5,16.7 C35.5,16.6 35.6,16.4 35.8,16.4 Z" id="Shape" fill="#000000" fill-rule="nonzero" mask="url(#mask-5)"></path>
                <g id="Shape" fill-rule="nonzero" mask="url(#mask-5)">
                    <use fill="#F5874F" xlink:href="#path-7"></use>
                    <use fill="url(#radialGradient-6)" xlink:href="#path-7"></use>
                </g>
            </g>
            <g id="MonsterMascot" transform="translate(389.000000, 130.000000)" fill-rule="nonzero">
                <path d="M33.232429,1.13361814 C34.632429,0.633618136 35.132429,1.63361814 34.432429,2.53361814 C33.232429,4.23361814 27.332429,4.63361814 26.332429,10.4336181 L26.332429,10.4336181 L26.432429,10.4336181 C28.932429,6.93361814 32.932429,4.33361814 37.132429,3.43361814 C40.232429,2.83361814 41.732429,5.83361814 37.232429,5.83361814 C34.032429,5.83361814 30.132429,7.73361814 28.232429,10.2336181 C31.632429,8.73361814 35.032429,7.13361814 38.632429,6.53361814 C42.232429,5.93361814 44.232429,8.93361814 37.932429,9.13361814 C35.132429,9.23361814 32.432429,9.63361814 30.332429,10.6336181 C31.832429,10.7336181 33.232429,11.0336181 34.332429,11.4336181 C34.457429,11.4336181 34.582429,11.4273681 34.707429,11.4179931 L35.457429,11.3492431 L35.457429,11.3492431 L35.832429,11.3336181 C40.532429,11.3336181 44.332429,15.1336181 44.332429,19.8336181 C44.332429,22.0336181 43.432429,24.1336181 42.032429,25.6336181 C42.132429,26.2336181 42.232429,26.7336181 42.232429,27.3336181 C48.632429,32.8336181 48.732429,44.7336181 47.632429,53.2336181 C48.232429,53.7336181 50.232429,55.4336181 50.932429,55.6336181 C52.432429,56.2336181 51.632429,59.7336181 47.032429,54.5336181 C47.132429,54.7336181 47.932429,56.4336181 48.132429,57.3336181 C48.332429,58.7336181 47.032429,58.8336181 46.932429,57.5336181 C46.932429,56.7336181 46.032429,55.1336181 46.032429,54.9336181 C45.9857623,55.0269515 45.8302068,55.3380626 45.647066,55.7043441 L45.485229,56.0280181 C45.320429,56.3576181 45.152429,56.6936181 45.032429,56.9336181 C44.232429,58.5336181 42.832429,58.4336181 43.432429,56.6336181 C43.732429,55.6336181 45.132429,53.9336181 45.232429,53.9336181 C45.132429,53.9336181 43.232429,54.7336181 42.832429,55.5336181 C41.632429,57.6336181 39.932429,56.6336181 41.832429,54.6336181 C42.732429,53.8336181 43.832429,53.1336181 45.132429,52.9336181 C45.532429,47.0336181 45.032429,38.9336181 42.132429,33.8336181 C42.032429,38.4336181 41.432429,47.4336181 38.432429,50.9336181 C36.232429,53.4336181 34.932429,54.0336181 32.532429,54.5336181 C32.532429,57.8336181 32.732429,59.8336181 34.332429,62.6336181 C35.532429,64.8336181 32.032429,66.0336181 31.132429,64.1336181 C29.932429,61.4336181 30.232429,57.7336181 30.632429,54.8336181 C27.532429,55.2336181 23.832429,55.2336181 20.732429,54.8336181 C21.232429,57.8336181 21.532429,61.4336181 20.232429,64.1336181 C19.332429,65.9336181 15.832429,64.8336181 17.032429,62.6336181 C18.632429,59.8336181 18.932429,57.7336181 18.832429,54.4336181 C17.932429,54.2336181 17.132429,54.0336181 16.432429,53.7336181 C15.132429,53.2336181 12.332429,50.8336181 11.332429,48.2336181 C9.83242899,44.1336181 9.23242899,38.2336181 9.13242899,33.7336181 C6.23242899,38.8336181 5.73242899,46.9336181 6.13242899,52.8336181 C7.43242899,53.0336181 8.53242899,53.7336181 9.43242899,54.5336181 C11.332429,56.5336181 9.63242899,57.4336181 8.43242899,55.4336181 C8.03242899,54.7336181 6.13242899,53.8336181 6.03242899,53.8336181 C6.13242899,53.8336181 7.53242899,55.6336181 7.83242899,56.5336181 C8.43242899,58.3336181 7.03242899,58.4336181 6.23242899,56.8336181 C6.03242899,56.2336181 5.43242899,55.0336181 5.33242899,54.8336181 C5.33242899,55.0336181 4.43242899,56.5336181 4.43242899,57.4336181 C4.33242899,58.6336181 3.03242899,58.6336181 3.23242899,57.2336181 C3.53242899,56.3336181 4.23242899,54.6336181 4.33242899,54.4336181 C4.13242899,54.6336181 2.43242899,56.7336181 1.13242899,57.2336181 C-0.167571005,57.8336181 -0.367571005,56.0336181 0.632428995,55.7336181 C1.33242899,55.5336181 3.33242899,53.8336181 3.93242899,53.3336181 C2.83242899,44.8336181 2.93242899,32.9336181 9.33242899,27.4336181 C9.33242899,27.2836181 9.33867899,27.1398681 9.34805399,26.9992431 L9.41680399,26.1679931 L9.41680399,26.1679931 L9.43242899,25.7336181 C8.03242899,24.2336181 7.13242899,22.2336181 7.13242899,19.9336181 C7.13242899,15.2336181 10.932429,11.4336181 15.632429,11.4336181 C16.132429,11.4336181 16.632429,11.4336181 17.132429,11.5336181 C18.932429,10.8336181 21.632429,10.5336181 24.432429,10.4336181 C26.232429,6.33361814 28.932429,2.53361814 33.232429,1.13361814 Z" id="Shape" stroke="#000000" stroke-width="2" fill="#FFFFFF"></path>
                <g id="Group">
                    <path d="M51.1,55.6 C50.4,55.4 48.4,53.7 47.8,53.2 C48.9,44.7 48.8,32.8 42.4,27.3 C42.4,26.7 42.3,26.2 42.2,25.6 C43.6,24.1 44.5,22 44.5,19.8 C44.5,15.1 40.7,11.3 36,11.3 C35.5,11.3 35,11.4 34.5,11.4 C33.4,11 32,10.7 30.5,10.6 C32.6,9.6 35.3,9.2 38.1,9.1 C44.4,8.9 42.4,5.9 38.8,6.5 C35.2,7.1 31.8,8.7 28.4,10.2 C30.3,7.7 34.2,5.8 37.4,5.8 C41.9,5.8 40.4,2.8 37.3,3.4 C33.1,4.3 29.1,6.9 26.6,10.4 C26.6,10.4 26.6,10.4 26.5,10.4 C27.5,4.6 33.4,4.2 34.6,2.5 C35.3,1.6 34.8,0.6 33.4,1.1 C29.1,2.5 26.4,6.3 24.6,10.4 C21.8,10.5 19.1,10.8 17.3,11.5 C16.8,11.4 16.3,11.4 15.8,11.4 C11.1,11.4 7.3,15.2 7.3,19.9 C7.3,22.2 8.2,24.2 9.6,25.7 C9.6,26.3 9.5,26.8 9.5,27.4 C3.1,32.9 3,44.8 4.1,53.3 C3.5,53.8 1.5,55.5 0.8,55.7 C-0.2,56 -2.91433544e-15,57.8 1.3,57.2 C2.6,56.7 4.3,54.6 4.5,54.4 C4.4,54.6 3.7,56.3 3.4,57.2 C3.2,58.6 4.5,58.6 4.6,57.4 C4.6,56.5 5.5,55 5.5,54.8 C5.6,55 6.2,56.2 6.4,56.8 C7.2,58.4 8.6,58.3 8,56.5 C7.7,55.6 6.3,53.8 6.2,53.8 C6.3,53.8 8.2,54.7 8.6,55.4 C9.8,57.4 11.5,56.5 9.6,54.5 C8.7,53.7 7.6,53 6.3,52.8 C5.9,46.9 6.4,38.8 9.3,33.7 C9.4,38.2 10,44.1 11.5,48.2 C12.5,50.8 15.3,53.2 16.6,53.7 C17.3,54 18.1,54.2 19,54.4 C19.1,57.7 18.8,59.8 17.2,62.6 C16,64.8 19.5,65.9 20.4,64.1 C21.7,61.4 21.4,57.8 20.9,54.8 C24,55.2 27.7,55.2 30.8,54.8 C30.4,57.7 30.1,61.4 31.3,64.1 C32.2,66 35.7,64.8 34.5,62.6 C32.9,59.8 32.7,57.8 32.7,54.5 C35.1,54 36.4,53.4 38.6,50.9 C41.6,47.4 42.2,38.4 42.3,33.8 C45.2,38.9 45.7,47 45.3,52.9 C44,53.1 42.9,53.8 42,54.6 C40.1,56.6 41.8,57.6 43,55.5 C43.4,54.7 45.3,53.9 45.4,53.9 C45.3,53.9 43.9,55.6 43.6,56.6 C43,58.4 44.4,58.5 45.2,56.9 C45.5,56.3 46.1,55.1 46.2,54.9 C46.2,55.1 47.1,56.7 47.1,57.5 C47.2,58.8 48.5,58.7 48.3,57.3 C48.1,56.4 47.3,54.7 47.2,54.5 C51.8,59.7 52.6,56.2 51.1,55.6 Z M10.1,20.6 C10.1,17.1 12.9,14.3 16.4,14.3 C19.9,14.3 22.7,17.1 22.7,20.6 C22.7,24.1 19.9,26.9 16.4,26.9 C12.9,26.9 10.1,24.1 10.1,20.6 Z M15.2,33.8 C16.8,34.6 18.5,35.1 20.1,35.4 C20.3,34.4 20.1,33.8 20.5,33.5 L20.5,33.5 C21,33 22.5,32.8 23,33.3 C23.3,33.9 23.1,32.9 23.3,35.6 C23.9,35.6 24.4,35.5 25,35.5 C24.9,34.3 24.5,33.4 24.8,33 L24.8,33 C25.1,32.4 26.6,31.8 27.2,32.2 C27.8,32.8 27.4,32.7 28.1,34.8 C28.6,34.6 29.1,34.4 29.6,34.2 C29.4,33 28.9,32.2 29.2,31.7 C29.2,31.7 29.2,31.7 29.2,31.7 C29.5,31 31.2,29.9 32,30.1 L32,30.1 C32,30.1 32,30.1 32,30.1 C32.2,30.2 32.3,30.3 32.4,30.4 L33.1,32.1 C34.6,31.1 35.8,29.9 36.9,28.9 C31.6,36.3 22.8,38.9 15.2,33.8 Z M35.6,26.9 C32.1,26.9 29.3,24.1 29.3,20.6 C29.3,17.1 32.1,14.3 35.6,14.3 C39.1,14.3 41.9,17.1 41.9,20.6 C41.9,24.1 39.1,26.9 35.6,26.9 Z" id="Shape" fill="url(#radialGradient-8)"></path>
                    <path d="M19.2,21.4 C19.3,21 19.2,20.6 19.1,20.3 C18.9,20.5 18.5,20.7 18.2,20.6 C17.7,20.5 17.3,20 17.4,19.4 C17.5,19.1 17.6,18.9 17.9,18.7 C17.7,18.6 17.4,18.5 17.2,18.4 C15.8,18.2 14.5,19.1 14.3,20.4 C14.1,21.8 15,23.1 16.3,23.3 C17.7,23.7 19,22.8 19.2,21.4 Z M16.4,21.8 C16.1,22 15.7,21.9 15.5,21.6 C15.3,21.3 15.4,20.9 15.7,20.7 C16,20.5 16.4,20.6 16.6,20.9 C16.8,21.2 16.7,21.6 16.4,21.8 Z" id="Shape" fill="#000000"></path>
                    <path d="M34.8,18.5 C34.5,18.5 34.3,18.6 34.1,18.8 C34.3,19 34.5,19.2 34.6,19.5 C34.7,20 34.3,20.6 33.8,20.7 C33.5,20.8 33.1,20.6 32.9,20.4 C32.8,20.7 32.8,21.1 32.8,21.5 C33,22.9 34.3,23.8 35.7,23.5 C37.1,23.3 38,22 37.7,20.6 C37.5,19.2 36.2,18.3 34.8,18.5 Z M36.4,21.6 C36.2,21.9 35.8,21.9 35.5,21.8 C35.2,21.6 35.1,21.2 35.3,20.9 C35.5,20.6 35.9,20.5 36.1,20.7 C36.5,21 36.6,21.4 36.4,21.6 Z" id="Shape" fill="#000000"></path>
                </g>
            </g>
            <g id="HappyMonster" transform="translate(480.000000, 137.000000)" fill-rule="nonzero">
                <g id="Group">
                    <path d="M24.1,8.8817842e-16 C26.5199157,8.8817842e-16 28.7875576,0.736186432 30.6773877,1.99607317 C32.365715,3.12162473 33.7521317,4.66524876 34.6768906,6.47413167 C36.4323171,4.05921862 39.2435431,2.5 42.4,2.5 C44.7115118,2.5 46.8133573,3.31115951 48.4338105,4.67085018 C49.7805938,5.80090968 50.7952474,7.31033071 51.3210224,9.05007738 C51.6613642,8.30219164 51.777299,7.45932017 51.9058142,6.62397141 C52.1374739,5.34880868 52.625733,4.34446376 53.5345509,3.77607883 C54.7138369,2.99740662 56.3431113,3.03429512 58.0297035,3.83645483 C59.5775701,4.57263524 61.1669141,5.9489834 62.4160251,7.8226499 C63.6884581,9.73129937 64.3883176,11.7759274 64.4650784,13.5030464 C64.5054517,14.4114446 64.374128,15.2356819 64.074573,15.919672 C63.7727854,16.6087596 63.3019653,17.1603003 62.6604515,17.5272342 C61.6400312,18.2006692 60.5068347,18.3293245 59.1418861,17.8743416 C58.8301746,17.7704378 58.490313,17.6661901 58.1375804,17.5778299 C59.4720712,20.8547386 59.8731986,24.080855 59.4973907,27.6510144 C58.7078523,35.3490136 54.663221,42.5700553 49.0315326,47.5424305 L49.0315326,47.5424305 L48.4403745,52.0265623 C48.8296855,52.2556092 49.3029744,52.5820671 49.7123475,52.9095656 C50.6669348,53.7441839 51.5638848,54.8592115 51.9241802,55.6923945 C52.1436039,56.1998117 52.1605069,56.6222947 52.0398822,56.9098614 C50.5265889,57.4273139 49.4645453,57.031892 48.582161,56.3919539 C48.5675437,56.636048 48.5243644,56.8638924 48.4520923,57.0646481 C48.3363175,57.3862447 48.1491382,57.6464252 47.897925,57.8267676 C47.6619668,57.9961587 47.3661288,58.1 47,58.1 C46.4653056,58.1 45.9808419,57.8897497 45.5667214,57.5377472 C45.3585592,57.3608094 45.1685929,57.1471163 44.9999375,56.9103769 C44.8313596,57.1471698 44.6414147,57.3608315 44.4332786,57.5377472 C44.0191581,57.8897497 43.5346944,58.1 43,58.1 C42.6338712,58.1 42.3380332,57.9961587 42.102075,57.8267676 C41.8508618,57.6464252 41.6636825,57.3862447 41.5479077,57.0646481 C41.479189,56.8737628 41.4367725,56.658387 41.4200473,56.4278917 C40.6234659,57.061414 39.7536348,57.5 39,57.5 C37.6387259,56.7049269 37.8133011,56.2749444 37.9647766,55.807895 C38.2377278,54.9662953 39.047342,53.8065173 39.8336033,52.9597745 L39.727,53.076 L39.3571492,53.2095923 C37.0891955,53.9958056 34.7029133,54.4345559 32.2637842,54.4932233 L31.7,54.5 C29.141451,54.5 26.5826855,54.0571783 24.1033645,53.2101276 L23.68,53.06 L23.7313957,53.1068916 C24.529222,53.8467949 25.2593994,54.7564985 25.6317267,55.4953743 L25.7241802,55.6923945 C25.9436039,56.1998117 25.9605069,56.6222947 25.8398822,56.9098614 C24.3069357,57.4310822 23.283596,57.0201308 22.385449,56.3605798 C22.3760393,56.6287396 22.333254,56.8741824 22.2569559,57.0861216 C22.141516,57.4067882 21.9533374,57.6616775 21.6991597,57.8377158 C21.4641387,58.0004865 21.1681832,58.1 20.8,58.1 C20.2653056,58.1 19.7808419,57.8897497 19.3667214,57.5377472 C19.1585592,57.3608094 18.9685929,57.1471163 18.7999375,56.9103769 C18.6313596,57.1471698 18.4414147,57.3608315 18.2332786,57.5377472 C17.8191581,57.8897497 17.3346944,58.1 16.8,58.1 C16.4338712,58.1 16.1380332,57.9961587 15.902075,57.8267676 C15.6508618,57.6464252 15.4636825,57.3862447 15.3479077,57.0646481 C15.2775065,56.8690892 15.2347113,56.6478258 15.218897,56.4109829 C14.3913252,57.0535967 13.4842893,57.5 12.8,57.5 C11.4396999,56.6148249 11.6421167,56.1543077 11.8619484,55.6459468 C12.2213154,54.8149106 13.1008614,53.7221519 14.0799078,52.9158894 C14.5146751,52.5535833 14.9002857,52.2904909 15.2363388,52.0923034 L15.2363388,52.0923034 L15.106972,47.836933 C9.30303744,42.8590391 5.20901986,35.5069195 4.30260928,27.6510144 C3.93095262,24.027362 4.40457501,20.6572426 5.64036103,17.6922546 C5.43562583,17.7472421 5.23117996,17.8075124 5.02014821,17.8694433 C3.2185276,18.3377661 2.00224497,18.2711021 1.10877962,17.6067257 C0.518185441,17.208513 0.0864772795,16.6294371 -0.181290702,15.9143991 C-0.44417449,15.2124037 -0.547968738,14.3753561 -0.48754678,13.4589564 C-0.373644377,11.7314367 0.325401027,9.71051064 1.58397485,7.8226499 C2.82986785,5.95381041 4.41426738,4.57972981 5.94558973,3.84242645 C6.77353322,3.44378699 7.58878453,3.22976969 8.33379585,3.212187 C9.10256425,3.19404363 9.80014995,3.38263869 10.3785811,3.78453701 C11.2881882,4.35943251 11.8769375,5.37669786 11.9962555,6.63614429 C12.1044111,7.28453258 12.2125352,7.90344005 12.3372238,8.50899783 C13.4573307,6.07675395 14.7947384,4.16018291 16.5419004,2.72501412 C18.6093735,1.02673266 21.2521277,-6.66133815e-16 24.1,-6.66133815e-16 Z" id="Shape" stroke="#000000" fill="#FFFFFF"></path>
                    <path d="M62.0043377,8.6 C59.6043377,5 55.9043377,3.3 53.8043377,4.7 C53.0043377,5.2 52.6043377,6.1 52.4043377,7.2 C52.2043377,8.5 52.0043377,9.8 51.6043377,11.1 C51.4043377,11 51.3043377,10.9 51.1043377,10.8 C50.4043377,6.6 46.8043377,3.5 42.4043377,3.5 C39.1043377,3.5 36.2043377,5.3 34.6043377,8 C32.9043377,3.9 28.8043377,1 24.1043377,1 C18.6043377,1 13.9043377,5 12.9043377,10.2 C12.7043377,10.3 12.4043377,10.5 12.2043377,10.6 C11.9043377,9.5 11.7043377,8.4 11.5043377,7.2 C11.4043377,6.1 10.9043377,5.2 10.1043377,4.7 C8.10433769,3.3 4.40433769,5 2.00433769,8.6 C-0.395662314,12.2 -0.695662314,16.3 1.40433769,17.7 C2.20433769,18.3 3.30433769,18.3 4.50433769,18 C5.20433769,17.8 5.80433769,17.6 6.50433769,17.5 C5.00433769,20.6 4.40433769,24.2 4.80433769,28.1 C5.70433769,35.9 9.80433769,43.2 15.6043377,48.1 L15.9043377,52.8 C15.5043377,53 15.0043377,53.3 14.4043377,53.8 C12.7043377,55.2 11.3043377,57.5 12.8043377,57.5 C13.7043377,57.5 15.0043377,56.6 15.9043377,55.6 C15.5043377,56.8 15.7043377,58.1 16.8043377,58.1 C17.7043377,58.1 18.4043377,57.3 18.8043377,56.4 C19.2043377,57.3 19.9043377,58.1 20.8043377,58.1 C21.9043377,58.1 22.1043377,56.9 21.7043377,55.6 C22.7043377,56.6 23.9043377,57.5 24.8043377,57.5 C26.3043377,57.5 24.8043377,55.2 23.2043377,53.8 C22.7043377,53.4 22.2043377,53 21.7043377,52.8 C21.7043377,52.6 21.7043377,52.4 21.7043377,52.2 C24.9043377,53.7 28.3043377,54.5 31.7043377,54.5 C35.2043377,54.5 38.6043377,53.7 41.7043377,52.2 C41.7043377,52.4 41.7043377,52.6 41.7043377,52.8 C41.3043377,53 40.8043377,53.3 40.2043377,53.8 C38.9043377,55.2 37.5043377,57.5 39.0043377,57.5 C40.0043377,57.5 41.2043377,56.6 42.1043377,55.6 C41.7043377,56.8 41.9043377,58.1 43.0043377,58.1 C43.9043377,58.1 44.6043377,57.3 45.0043377,56.4 C45.4043377,57.3 46.1043377,58.1 47.0043377,58.1 C48.1043377,58.1 48.3043377,56.8 47.9043377,55.6 C48.8043377,56.6 50.1043377,57.5 51.0043377,57.5 C52.5043377,57.5 51.0043377,55.2 49.4043377,53.8 C48.9043377,53.4 48.3043377,53 47.9043377,52.8 L48.2043377,48.1 C54.0043377,43.2 58.2043377,35.9 59.0043377,28.1 C59.4043377,24.3 58.9043377,20.9 57.5043377,17.8 C57.4043377,17.7 57.4043377,17.5 57.3043377,17.4 C58.0043377,17.5 58.7043377,17.7 59.3043377,17.9 C60.5043377,18.3 61.5043377,18.2 62.4043377,17.6 C64.7043377,16.3 64.4043377,12.2 62.0043377,8.6 Z M42.2043377,7 C45.4043377,7 48.0043377,9.6 48.0043377,12.8 C48.0043377,16 45.4043377,18.6 42.2043377,18.6 C39.0043377,18.6 36.4043377,16 36.4043377,12.8 C36.4043377,9.6 39.0043377,7 42.2043377,7 Z M24.4043377,4.7 C28.8043377,4.7 32.3043377,8.2 32.3043377,12.6 C32.3043377,17 28.8043377,20.5 24.4043377,20.5 C20.0043377,20.5 16.5043377,17 16.5043377,12.6 C16.5043377,8.2 20.0043377,4.7 24.4043377,4.7 Z M1.80433769,14.5 C0.704337686,13.7 1.00433769,11.3 2.50433769,9 C4.10433769,6.8 6.20433769,5.5 7.30433769,6.3 C8.40433769,7.1 8.10433769,9.5 6.60433769,11.7 C5.10433769,14 2.90433769,15.2 1.80433769,14.5 Z M17.0043377,36.2 C15.9043377,34 15.8043377,32 16.7043377,30.6 C19.2043377,26.7 25.3043377,26.5 31.2043377,26.3 L31.9043377,26.3 L32.6043377,26.3 C38.5043377,26.5 44.7043377,26.7 47.1043377,30.6 C48.0043377,32 48.0043377,34 46.8043377,36.2 C44.7043377,40.1 39.3043377,44.1 31.8043377,44.2 C24.5043377,44.1 19.1043377,40.1 17.0043377,36.2 Z M62.2043377,14.5 C61.1043377,15.3 58.9043377,14 57.4043377,11.8 C55.9043377,9.5 55.5043377,7.1 56.7043377,6.4 C57.8043377,5.6 60.0043377,6.9 61.5043377,9.1 C63.0043377,11.3 63.3043377,13.7 62.2043377,14.5 Z" id="Shape" fill="url(#radialGradient-9)"></path>
                    <path d="M46.4,30.6 L46.4,30.6 C45.3,28.8 43.1,27.9 40.5,27.4 C40.5,28.3 40.4,30 39.9,30.4 C39.2,30.9 37.9,30.8 37.3,30.1 C36.9,29.6 37.2,27.9 37.4,27.1 C36.5,27 35.6,27 34.6,26.9 C34.8,27.8 35.2,29.5 34.8,29.9 C34.2,30.6 32.5,30.5 31.9,29.8 C31.5,29.3 31.6,27.6 31.7,26.7 L31.2,26.7 C30.9,26.7 30.6,26.7 30.2,26.7 C30.3,27.6 30.3,29.3 29.9,29.7 C29.3,30.3 27.9,30.5 27.3,29.8 C26.9,29.4 27.1,27.7 27.2,26.8 C26.9,26.8 26.6,26.8 26.3,26.9 C26.5,27.7 27,29.4 26.6,29.9 C25.9,30.9 24.1,31 23.2,30.4 C22.7,30.1 22.5,28.3 22.5,27.5 C20.3,28 18.5,28.9 17.5,30.5 C16.7,31.6 16.9,33.3 17.8,35.1 C18.7,36.8 20.3,38.5 22.4,39.8 C22.4,38.8 22.5,37 23,36.7 C24.1,36.2 25.6,37.3 26.3,38.4 C26.6,39 26.3,40.7 26.2,41.5 C26.9,41.7 27.6,41.9 28.3,42.1 C28.1,41.2 27.7,39.4 28.1,39 C28.8,38.3 30.3,38.6 31,39.4 C31.4,39.9 31.3,41.6 31.2,42.5 C31.5,42.5 31.7,42.5 32,42.5 C32.2,42.5 32.3,42.5 32.5,42.5 C32.4,41.6 32.4,39.9 32.8,39.4 C33.5,38.7 34.9,38.4 35.6,39 C36.1,39.4 35.8,41.2 35.7,42.1 C36.1,42 36.4,41.9 36.8,41.8 C36.6,41 36.1,39.3 36.5,38.8 C37.2,37.7 38.8,36.9 39.8,37.4 C40.3,37.7 40.5,39.4 40.5,40.4 C43.1,39 45.1,37 46.1,35.1 C47,33.4 47.2,31.7 46.4,30.6 Z" id="Path" fill="#000000"></path>
                    <path d="M24.6,14 C26.1,14 27.3,12.8 27.3,11.3 C27.3,11 27.2,10.7 27.1,10.4 C26.9,10.7 26.6,10.9 26.2,10.9 C25.6,10.9 25.1,10.4 25.1,9.8 C25.1,9.4 25.4,9 25.7,8.8 C25.3,8.6 24.9,8.5 24.5,8.5 C23,8.5 21.8,9.7 21.8,11.2 C21.8,12.7 23.1,14 24.6,14 Z M23.6,10.9 C24.1,10.9 24.4,11.3 24.4,11.7 C24.4,12.1 24,12.5 23.6,12.5 C23.1,12.5 22.8,12.1 22.8,11.7 C22.8,11.3 23.2,10.9 23.6,10.9 Z" id="Shape" fill="#000000"></path>
                    <path d="M42,14 C43.1,14 44,13.1 44,12 C44,11.8 44,11.6 43.9,11.4 C43.8,11.6 43.5,11.8 43.2,11.8 C42.8,11.8 42.4,11.5 42.4,11 C42.4,10.7 42.6,10.4 42.9,10.3 C42.6,10.1 42.3,10 42,10 C40.9,10 40,10.9 40,12 C40,13.1 40.9,14 42,14 Z M41.3,11.8 C41.6,11.8 41.9,12.1 41.9,12.4 C41.9,12.7 41.6,13 41.3,13 C41,13 40.7,12.7 40.7,12.4 C40.7,12 41,11.8 41.3,11.8 Z" id="Shape" fill="#000000"></path>
                </g>
            </g>
            <g id="AnnoyingMonster" transform="translate(608.000000, 130.000000)" fill-rule="nonzero">
                <g id="Group">
                    <path d="M42.6096393,6.7118642e-05 L42.7075337,0.00639472905 C44.6075337,0.306394729 46.6075337,0.706394729 48.6075337,1.90639473 C56.8075337,6.70639473 53.0075337,16.6063947 45.3075337,22.9063947 C45.6075337,24.3063947 45.8075337,25.8063947 45.8075337,27.5063947 C46.0075337,27.6663947 46.2235337,27.8383947 46.4371337,28.0159947 L46.6911241,28.2313931 C47.4425737,28.8831947 48.0675337,29.5743947 47.7075337,30.0063947 C54.1075337,36.5063947 57.3075337,49.0063947 53.1075337,53.2063947 C55.2075337,56.4063947 52.5075337,56.9063947 52.5075337,55.3063947 C52.5075337,55.1063947 52.4075337,54.4063947 52.3075337,53.8063947 C51.6075337,54.3063947 51.0075337,54.4063947 50.9075337,54.4063947 C51.8075337,57.2063947 49.4075337,57.2063947 49.7075337,55.7063947 C49.7075337,55.6973038 49.7083602,55.6849071 49.7098628,55.66943 L49.7257907,55.541406 C49.7546412,55.3262294 49.8075337,54.9427584 49.8075337,54.5063947 C49.4075337,54.5063947 48.6075337,54.4063947 48.2075337,54.2063947 C48.3075337,57.4063947 44.9075337,56.1063947 46.4075337,54.9063947 C46.6075337,54.8063947 47.2075337,54.5063947 47.5075337,53.9063947 C46.9075337,53.5063947 46.3075337,53.1063947 45.9075337,52.4063947 C45.5075337,52.8063947 45.3075337,53.3063947 45.1075337,53.8063947 C44.5075337,55.6063947 43.4075337,54.8063947 43.4075337,53.6063947 C43.4075337,52.2063947 44.3075337,51.1063947 45.5075337,50.8063947 C45.5075337,48.7063947 48.6075337,46.8063947 47.1075337,40.5063947 C46.8075337,39.0063947 46.4075337,37.9063947 45.7075337,36.7063947 C45.1075337,36.8063947 44.6075337,36.2063947 44.3075337,35.8063947 C42.9075337,40.7063947 40.5075337,46.2063947 37.4075337,50.3063947 C38.8075337,57.4063947 37.6075337,56.8063947 36.7075337,55.6063947 C36.9075337,57.9063947 36.2075337,60.0063947 35.6075337,62.5063947 C37.3075337,59.3063947 42.1075337,60.5063947 42.7075337,64.0063947 L42.7075337,64.0063947 L34.7075337,64.0063947 C34.1075337,64.0063947 33.5075337,63.4063947 33.7075337,62.8063947 C34.0075337,59.9063947 32.9075337,59.0063947 31.9075337,57.1063947 C30.9075337,58.2063947 29.6075337,57.7063947 29.4075337,56.5063947 C28.1075337,56.8063947 26.8075337,56.9063947 25.4075337,56.5063947 C25.2075337,57.7063947 23.9075337,58.2063947 22.9075337,57.1063947 C22.0075337,59.0063947 20.8075337,60.0063947 21.1075337,62.8063947 C21.3075337,63.5063947 20.8075337,64.1063947 20.1075337,64.0063947 L20.1075337,64.0063947 L12.0075337,64.0063947 C12.7075337,60.5063947 17.4075337,59.4063947 19.1075337,62.5063947 C18.5075337,60.0063947 17.8075337,58.0063947 18.0075337,55.6063947 C17.9936876,55.6248563 17.9797704,55.6431521 17.9657928,55.6612575 L17.8812863,55.7674067 C17.8245777,55.8363851 17.7672399,55.9015241 17.7099487,55.961239 L17.6241313,56.0465451 C16.8250722,56.8010693 16.1013799,56.337164 17.3075337,50.3063947 C14.2075337,46.2063947 11.8075337,40.7063947 10.4075337,35.8063947 L10.4075337,35.8063947 L10.3075337,35.9063947 C9.80753373,36.5063947 9.40753373,36.8063947 9.00753373,36.7063947 C8.30753373,37.9063947 8.00753373,39.0063947 7.60753373,40.5063947 C6.10753373,46.7063947 9.10753373,48.7063947 9.20753373,50.8063947 C10.4075337,51.2063947 11.3075337,52.3063947 11.3075337,53.6063947 C11.3075337,54.9063947 10.2075337,55.6063947 9.60753373,53.8063947 C9.40753373,53.3063947 9.20753373,52.8063947 8.80753373,52.4063947 C8.40753373,53.1063947 7.90753373,53.5063947 7.20753373,53.9063947 C7.50753373,54.5063947 8.20753373,54.8063947 8.30753373,54.9063947 C9.90753373,56.0063947 6.40753373,57.4063947 6.50753373,54.2063947 C6.10753373,54.3063947 5.40753373,54.5063947 5.00753373,54.5063947 C5.00753373,55.0063947 5.10753373,55.6063947 5.10753373,55.7063947 C5.50753373,57.2063947 3.10753373,57.3063947 3.90753373,54.4063947 C3.70753373,54.3063947 3.20753373,54.2063947 2.50753373,53.8063947 C2.40753373,54.5063947 2.30753373,55.2063947 2.30753373,55.3063947 C2.30753373,56.9063947 -0.392466271,56.4063947 1.60753373,53.5063947 C-2.09246627,49.5063947 0.907533729,37.0063947 7.40753373,30.4063947 C7.00753373,29.9063947 8.50753373,28.6063947 9.30753373,27.9063947 C9.40753373,25.7063947 9.70753373,23.7063947 10.2075337,22.0063947 C4.80753373,15.6063947 3.20753373,6.40639473 10.9075337,4.10639473 C12.7075337,3.50639473 14.3075337,3.60639473 15.8075337,3.70639473 C16.4075337,3.70639473 16.5075337,4.70639473 16.0075337,4.90639473 C14.6075337,5.40639473 13.2075337,6.00639473 12.3075337,6.80639473 C10.6075337,8.30639473 10.6075337,10.1063947 11.9075337,11.3063947 C12.6075337,12.2063947 13.4075337,12.9063947 14.3075337,13.6063947 C14.6075337,12.7063947 15.2075337,11.9063947 15.8075337,11.3063947 C15.4075337,11.4063947 15.0075337,11.4063947 14.5075337,11.5063947 C12.0075337,12.0063947 11.7075337,8.20639473 14.4075337,7.50639473 C16.9075337,6.80639473 19.5075337,7.80639473 21.6075337,9.30639473 L21.6075337,9.30639473 L21.8075337,9.30639473 C17.9075337,5.10639473 20.5075337,2.60639473 22.6075337,5.40639473 C24.0075337,7.20639473 25.2075337,9.20639473 26.2075337,11.2063947 L26.199,11.19 L26.142683,11.0687605 C25.0186448,8.53165594 27.4326184,5.27420831 28.2637972,7.7648046 L28.3075337,7.90639473 C28.7075337,9.10639473 28.8075337,10.3063947 28.8075337,11.4063947 L28.8075337,11.4063947 L29.8075337,11.4063947 L29.8075337,11.4063947 L29.8075337,11.2063947 C30.2075337,9.80639473 31.2075337,10.4063947 31.5075337,11.6063947 C31.8075337,11.6063947 32.1075337,11.6063947 32.4075337,11.7063947 C33.0075337,10.8063947 33.5075337,10.0063947 34.1075337,9.20639473 C35.7075337,7.00639473 37.7075337,8.90639473 34.7075337,12.1063947 L34.7075337,12.1063947 L34.8075337,12.1063947 C36.4075337,10.9063947 38.3075337,10.1063947 40.3075337,10.6063947 C41.3075337,10.8063947 41.7075337,11.7063947 41.7075337,12.4063947 C43.0075337,11.9063947 44.2075337,11.2063947 45.2075337,10.4063947 C47.1075337,9.30639473 47.7075337,7.10639473 46.1075337,4.80639473 C45.2075337,3.60639473 43.7075337,2.40639473 42.1075337,1.40639473 C41.6075337,1.00639473 42.0075337,-0.0936052709 42.7075337,0.00639472905 Z" id="Shape" stroke="#000000" fill="#FFFFFF"></path>
                    <path d="M47.7075337,30.0063947 C48.2075337,29.4063947 46.8075337,28.3063947 45.8075337,27.5063947 C45.8075337,25.8063947 45.6075337,24.3063947 45.3075337,22.9063947 C53.0075337,16.6063947 56.8075337,6.70639473 48.6075337,1.90639473 C46.6075337,0.706394729 44.6075337,0.306394729 42.7075337,0.00639472905 C42.0075337,-0.0936052709 41.6075337,1.00639473 42.1075337,1.40639473 C43.7075337,2.40639473 45.2075337,3.60639473 46.1075337,4.80639473 C47.7075337,7.10639473 47.1075337,9.30639473 45.2075337,10.4063947 C44.2075337,11.2063947 43.0075337,11.9063947 41.7075337,12.4063947 C41.7075337,11.7063947 41.3075337,10.8063947 40.3075337,10.6063947 C38.3075337,10.1063947 36.4075337,10.9063947 34.8075337,12.1063947 C34.8075337,12.1063947 34.7075337,12.1063947 34.7075337,12.1063947 C37.7075337,8.90639473 35.7075337,7.00639473 34.1075337,9.20639473 C33.5075337,10.0063947 33.0075337,10.8063947 32.4075337,11.7063947 C32.1075337,11.6063947 31.8075337,11.6063947 31.5075337,11.6063947 C31.2075337,10.4063947 30.2075337,9.80639473 29.8075337,11.2063947 C29.8075337,11.3063947 29.8075337,11.3063947 29.8075337,11.4063947 C29.5075337,11.4063947 29.1075337,11.4063947 28.8075337,11.4063947 C28.8075337,10.3063947 28.7075337,9.10639473 28.3075337,7.90639473 C27.5075337,5.10639473 24.9075337,8.60639473 26.2075337,11.2063947 C25.2075337,9.20639473 24.0075337,7.20639473 22.6075337,5.40639473 C20.5075337,2.60639473 17.9075337,5.10639473 21.8075337,9.30639473 C21.7075337,9.30639473 21.6075337,9.30639473 21.6075337,9.30639473 C19.5075337,7.80639473 16.9075337,6.80639473 14.4075337,7.50639473 C11.7075337,8.20639473 12.0075337,12.0063947 14.5075337,11.5063947 C15.0075337,11.4063947 15.4075337,11.4063947 15.8075337,11.3063947 C15.2075337,11.9063947 14.6075337,12.7063947 14.3075337,13.6063947 C13.4075337,12.9063947 12.6075337,12.2063947 11.9075337,11.3063947 C10.6075337,10.1063947 10.6075337,8.30639473 12.3075337,6.80639473 C13.2075337,6.00639473 14.6075337,5.40639473 16.0075337,4.90639473 C16.5075337,4.70639473 16.4075337,3.70639473 15.8075337,3.70639473 C14.3075337,3.60639473 12.7075337,3.50639473 10.9075337,4.10639473 C3.20753373,6.40639473 4.80753373,15.6063947 10.2075337,22.0063947 C9.70753373,23.7063947 9.40753373,25.7063947 9.30753373,27.9063947 C8.50753373,28.6063947 7.00753373,29.9063947 7.40753373,30.4063947 C0.907533729,37.0063947 -2.09246627,49.5063947 1.60753373,53.5063947 C-0.392466271,56.4063947 2.30753373,56.9063947 2.30753373,55.3063947 C2.30753373,55.2063947 2.40753373,54.5063947 2.50753373,53.8063947 C3.20753373,54.2063947 3.70753373,54.3063947 3.90753373,54.4063947 C3.10753373,57.3063947 5.50753373,57.2063947 5.10753373,55.7063947 C5.10753373,55.6063947 5.00753373,55.0063947 5.00753373,54.5063947 C5.40753373,54.5063947 6.10753373,54.3063947 6.50753373,54.2063947 C6.40753373,57.4063947 9.90753373,56.0063947 8.30753373,54.9063947 C8.20753373,54.8063947 7.50753373,54.5063947 7.20753373,53.9063947 C7.90753373,53.5063947 8.40753373,53.1063947 8.80753373,52.4063947 C9.20753373,52.8063947 9.40753373,53.3063947 9.60753373,53.8063947 C10.2075337,55.6063947 11.3075337,54.9063947 11.3075337,53.6063947 C11.3075337,52.3063947 10.4075337,51.2063947 9.20753373,50.8063947 C9.10753373,48.7063947 6.10753373,46.7063947 7.60753373,40.5063947 C8.00753373,39.0063947 8.30753373,37.9063947 9.00753373,36.7063947 C9.40753373,36.8063947 9.80753373,36.5063947 10.3075337,35.9063947 C10.3075337,35.9063947 10.4075337,35.8063947 10.4075337,35.8063947 C11.8075337,40.7063947 14.2075337,46.2063947 17.3075337,50.3063947 C15.9075337,57.3063947 17.1075337,56.8063947 18.0075337,55.6063947 C17.8075337,58.0063947 18.5075337,60.0063947 19.1075337,62.5063947 C17.4075337,59.4063947 12.7075337,60.5063947 12.0075337,64.0063947 L20.1075337,64.0063947 C20.8075337,64.1063947 21.3075337,63.5063947 21.1075337,62.8063947 C20.8075337,60.0063947 22.0075337,59.0063947 22.9075337,57.1063947 C23.9075337,58.2063947 25.2075337,57.7063947 25.4075337,56.5063947 C26.8075337,56.9063947 28.1075337,56.8063947 29.4075337,56.5063947 C29.6075337,57.7063947 30.9075337,58.2063947 31.9075337,57.1063947 C32.9075337,59.0063947 34.0075337,59.9063947 33.7075337,62.8063947 C33.5075337,63.4063947 34.1075337,64.0063947 34.7075337,64.0063947 L42.7075337,64.0063947 C42.1075337,60.5063947 37.3075337,59.3063947 35.6075337,62.5063947 C36.2075337,60.0063947 36.9075337,57.9063947 36.7075337,55.6063947 C37.6075337,56.8063947 38.8075337,57.4063947 37.4075337,50.3063947 C40.5075337,46.2063947 42.9075337,40.7063947 44.3075337,35.8063947 C44.6075337,36.2063947 45.1075337,36.8063947 45.7075337,36.7063947 C46.4075337,37.9063947 46.8075337,39.0063947 47.1075337,40.5063947 C48.6075337,46.8063947 45.5075337,48.7063947 45.5075337,50.8063947 C44.3075337,51.1063947 43.4075337,52.2063947 43.4075337,53.6063947 C43.4075337,54.8063947 44.5075337,55.6063947 45.1075337,53.8063947 C45.3075337,53.3063947 45.5075337,52.8063947 45.9075337,52.4063947 C46.3075337,53.1063947 46.9075337,53.5063947 47.5075337,53.9063947 C47.2075337,54.5063947 46.6075337,54.8063947 46.4075337,54.9063947 C44.9075337,56.1063947 48.3075337,57.4063947 48.2075337,54.2063947 C48.6075337,54.4063947 49.4075337,54.5063947 49.8075337,54.5063947 C49.8075337,55.1063947 49.7075337,55.6063947 49.7075337,55.7063947 C49.4075337,57.2063947 51.8075337,57.2063947 50.9075337,54.4063947 C51.0075337,54.4063947 51.6075337,54.3063947 52.3075337,53.8063947 C52.4075337,54.4063947 52.5075337,55.1063947 52.5075337,55.3063947 C52.5075337,56.9063947 55.2075337,56.4063947 53.1075337,53.2063947 C57.3075337,49.0063947 54.1075337,36.5063947 47.7075337,30.0063947 Z M35.0075337,12.8063947 C37.4075337,12.8063947 39.3075337,14.8063947 39.3075337,17.3063947 C39.3075337,19.8063947 37.4075337,21.8063947 35.0075337,21.8063947 C32.6075337,21.8063947 30.7075337,19.8063947 30.7075337,17.3063947 C30.7075337,14.8063947 32.7075337,12.8063947 35.0075337,12.8063947 Z M21.4075337,10.1063947 C24.5075337,10.1063947 27.0075337,12.7063947 27.0075337,16.0063947 C27.0075337,19.3063947 24.5075337,21.9063947 21.4075337,21.9063947 C18.3075337,21.9063947 15.8075337,19.3063947 15.8075337,16.0063947 C15.8075337,12.7063947 18.3075337,10.1063947 21.4075337,10.1063947 Z M40.2075337,33.7063947 C37.5075337,37.6063947 33.0075337,39.8063947 27.7075337,39.8063947 L27.6075337,39.8063947 C19.5075337,39.8063947 15.8075337,35.1063947 14.6075337,33.1063947 C13.1075337,30.7063947 12.8075337,28.0063947 13.6075337,26.4063947 C14.7075337,24.3063947 17.4075337,24.0063947 20.8075337,25.4063947 C25.1075337,27.2063947 30.1075337,27.2063947 34.4075337,25.4063947 C36.6075337,24.5063947 38.5075337,24.4063947 39.9075337,24.9063947 C40.8075337,25.3063947 41.4075337,25.9063947 41.8075337,26.8063947 C42.5075337,28.6063947 41.9075337,31.3063947 40.2075337,33.7063947 Z" id="Shape" stroke="#080808" fill="url(#radialGradient-10)"></path>
                    <path d="M39.9,25.9 C39.5,25.7 38.9,25.6 38,25.6 C38.2,26.2 38.6,27.2 38.3,27.6 C37.5,28.6 35.8,29.6 34.2,28.8 C33.8,28.6 33.6,27.6 33.5,26.9 C31.5,27.5 29.4,27.8 27.3,27.7 C27.4,28.3 27.6,29.4 27.3,29.7 C26.3,30.7 23.8,30.3 23,29.1 C22.8,28.7 23.1,27.7 23.3,27.1 C23,27 22.7,27 22.4,26.9 C22.3,27.5 22.1,28.6 21.7,28.8 C20.1,29.6 18.4,28.6 17.6,27.6 C17.3,27.3 17.7,26.2 17.9,25.6 C17.8,25.6 17.6,25.6 17.5,25.6 C16.2,25.6 15.3,26.1 14.8,26.9 C14.1,28.2 14.5,30.5 15.7,32.6 C16.5,33.9 18.5,36.6 22.4,37.9 C22.4,37.2 22.4,35.9 22.8,35.7 C23.6,35.2 25.1,35.6 25.8,36.5 C26.1,36.9 25.9,38.1 25.7,38.7 C26.4,38.8 27,38.8 27.8,38.8 C27.8,38.8 27.8,38.8 27.8,38.8 L27.8,38.8 C27.8,38.8 27.8,38.8 27.8,38.8 C28.4,38.8 28.9,38.8 29.4,38.7 C29.3,38 29.3,36.8 29.7,36.4 C30.7,35.3 32.4,34.8 33.5,35.3 C33.9,35.5 34.1,36.7 34.2,37.4 C37.1,36.1 38.8,34.1 39.5,33 C41.2,30.6 41.4,28.2 41,27 C41,26.7 40.5,26.2 39.9,25.9 Z" id="Path" fill="#000000"></path>
                    <path d="M22.9,18.5 C24.1,18.5 25.2,17.5 25.2,16.2 C25.2,15.9 25.1,15.7 25.1,15.4 C24.9,15.6 24.6,15.8 24.3,15.8 C23.7,15.8 23.3,15.4 23.3,14.8 C23.3,14.5 23.4,14.3 23.6,14.1 C23.3,14 23.1,14 22.9,14 C21.7,14 20.6,15 20.6,16.3 C20.6,17.6 21.7,18.5 22.9,18.5 Z M22.3,16.3 C22.6,16.3 22.9,16.6 22.9,16.9 C22.9,17.2 22.6,17.5 22.3,17.5 C22,17.5 21.7,17.2 21.7,16.9 C21.7,16.6 21.9,16.3 22.3,16.3 Z" id="Shape" fill="#000000"></path>
                    <path d="M34.6,19 C35.4,19 36.1,18.3 36.1,17.5 C36.1,16.7 35.4,16 34.6,16 C34.5,16 34.3,16 34.2,16.1 C34.3,16.2 34.4,16.4 34.4,16.6 C34.4,17 34.1,17.3 33.7,17.3 C33.5,17.3 33.3,17.2 33.2,17.1 C33.1,17.3 33.1,17.4 33.1,17.6 C33.1,18.3 33.8,19 34.6,19 Z M35,17.6 C35.2,17.6 35.4,17.8 35.4,18 C35.4,18.2 35.2,18.4 35,18.4 C34.8,18.4 34.6,18.2 34.6,18 C34.6,17.8 34.8,17.6 35,17.6 Z" id="Shape" fill="#000000"></path>
                </g>
            </g>
            <g id="AlienMonster" transform="translate(670.000000, 122.000000)" fill-rule="nonzero">
                <g id="Group">
                    <path d="M25.5,11.4 C24.7,4.8 30.2,-0.7 36.8,0.1 C41.6,0.7 45.6,4.8 45.6,10.2 C45.9,19.1 30.8,24.2 40.1,24.2 C42.9,24.2 45.7,23.3 48,21.6 C45.5,17.9 48.5,12.8 53.1,13.4 C55.5,13.7 57.4,15.6 57.7,18 C58.1,21.4 55.2,24.3 51.7,23.9 C51.2,23.8 50.8,23.7 50.4,23.5 C49.8,26 50.4,28.8 52.3,30.8 C55.5,34.3 57.5,38.8 57.7,43.9 C60,47.2 65,51.8 68.1,54.4 C68.4,54.6 68.6,54.6 69,54.3 C70,53.4 71.6,52.7 72.4,53.3 C73.2470588,53.8647059 72.250519,54.3297578 71.1338083,54.7654997 L70.8531244,54.8738653 C70.4782007,55.0176471 70.1058824,55.1588235 69.8,55.3 C71.9,55.9 73,57.3 72.9,58 C72.9,58.8 71.7,58.9 69.3,56.6 C70.5,59.2 70.2,60.8 69.3,59.7 C67.9,57.9 68.2,57 67.4,56 C67.4,56 64.1657551,53.2413793 61.1414408,50.3154701 L60.6897987,49.875653 C59.4919144,48.7011891 58.3551724,47.5206897 57.5,46.5 C56.9,53.7 52.7,59.9 46.6,63.1 C46.4,65.9 46.1,67.8 45.8,68.8 C45.9411765,68.7905882 46.0885536,68.7851626 46.2405058,68.7833376 L46.471662,68.7832523 C46.6668128,68.7853512 46.8678419,68.7927748 47.071574,68.8047699 L47.3171468,68.8213102 C47.4814561,68.8337356 47.6466824,68.8488941 47.8112,68.8664 L48.0572418,68.8943712 L48.0572418,68.8943712 L48.3010013,68.9255743 C50.8845952,69.2746159 52.8705882,70.1258824 47.6,69.9 C49.9,70.9 48.2,71.8 45.7,70.5 C44.9,73.8 41.8,71 44.6,69.2 C44.2,68.5 43.8,66.9 43.3,64.6 C39,66 34.6,65.9 30.6,64.6 C30.2,66.9 29.7,68.4 29.3,69.2 C32.1,70.9 29,73.8 28.2,70.5 C25.7,71.8 23.9,70.9 26.3,69.9 C20.8785714,70.1357143 23.297449,69.1367347 25.989723,68.8432945 L26.2350178,68.8186157 C26.8900227,68.7582766 27.547619,68.7428571 28.1,68.8 C27.8,67.8 27.5,65.9 27.3,63.1 C21.2,59.8 17,53.6 16.4,46.5 C15.5448276,47.5206897 14.4080856,48.7011891 13.2102013,49.875653 L12.7585592,50.3154701 C9.73424495,53.2413793 6.5,56 6.5,56 C5.7,57.1 6,58 4.5,59.8 C3.6,61 3.3,59.3 4.5,56.7 C2.1,59 0.9,58.9 0.9,58.1 C0.9,57.3 2,55.9 4.1,55.3 C2.8,54.7 0.4,54.1 1.5,53.3 C2.3,52.7 3.9,53.4 4.9,54.3 C5.3,54.6 5.5,54.6 5.8,54.4 C8.9,51.8 14,47.3 16.2,44 C16.6,34.5 21.8,23.6 30,18.5 C27.6,17 25.9,14.4 25.5,11.4 Z" id="Shape" stroke="#000000" stroke-width="2" fill="#FFFFFF"></path>
                    <path d="M69.9,55.2775767 C71.2,54.6775767 73.7,54.0775767 72.5,53.2775767 C71.7,52.6775767 70.1,53.3775767 69.1,54.2775767 C68.7,54.5775767 68.5,54.5775767 68.2,54.3775767 C65.1,51.7775767 60.1,47.1775767 57.8,43.8775767 C57.6,38.7775767 55.6,34.2775767 52.4,30.7775767 C50.5,28.7775767 49.9,25.9775767 50.5,23.4775767 C50.9,23.6775767 51.3,23.7775767 51.8,23.8775767 C55.3,24.2775767 58.2,21.3775767 57.8,17.9775767 C57.5,15.5775767 55.6,13.6775767 53.2,13.3775767 C48.6,12.7775767 45.6,17.8775767 48.1,21.5775767 C45.8,23.2775767 43,24.1775767 40.2,24.1775767 C30.9,24.1775767 46,19.0775767 45.7,10.1775767 C45.7,4.77757666 41.7,0.67757666 36.9,0.0775766597 C30.3,-0.72242334 24.8,4.77757666 25.6,11.3775767 C26,14.3775767 27.7,16.9775767 30.1,18.4775767 C21.9,23.5775767 16.7,34.4775767 16.3,43.9775767 C14.1,47.2775767 9,51.7775767 5.9,54.3775767 C5.6,54.5775767 5.4,54.5775767 5,54.2775767 C4,53.3775767 2.4,52.6775767 1.6,53.2775767 C0.5,54.0775767 2.9,54.6775767 4.2,55.2775767 C2.1,55.8775767 1,57.2775767 1,58.0775767 C1,58.8775767 2.2,58.9775767 4.6,56.6775767 C3.4,59.2775767 3.7,60.9775767 4.6,59.7775767 C6.1,57.9775767 5.8,57.0775767 6.6,55.9775767 C6.6,55.9775767 13.4,50.1775767 16.5,46.4775767 C17.1,53.5775767 21.3,59.7775767 27.4,63.0775767 C27.6,65.8775767 27.9,67.7775767 28.2,68.7775767 C25.3,68.4775767 19.5,70.1775767 26.4,69.8775767 C24,70.8775767 25.8,71.7775767 28.3,70.4775767 C29.1,73.7775767 32.2,70.8775767 29.4,69.1775767 C29.8,68.3775767 30.3,66.8775767 30.7,64.5775767 C34.7,65.8775767 39.1,65.9775767 43.4,64.5775767 C43.9,66.8775767 44.3,68.4775767 44.7,69.1775767 C41.9,70.9775767 45,73.7775767 45.8,70.4775767 C48.3,71.7775767 50,70.8775767 47.7,69.8775767 C54.7,70.1775767 48.9,68.5775767 45.9,68.7775767 C46.2,67.7775767 46.5,65.8775767 46.7,63.0775767 C52.8,59.8775767 57,53.6775767 57.6,46.4775767 C60.7,50.1775767 67.5,55.9775767 67.5,55.9775767 C68.3,56.9775767 68,57.8775767 69.4,59.6775767 C70.3,60.7775767 70.6,59.1775767 69.4,56.5775767 C71.8,58.8775767 73,58.7775767 73,57.9775767 C73.1,57.2775767 72,55.8775767 69.9,55.2775767 Z M52.7,15.6775767 C54.7,15.6775767 56.3,17.2775767 56.3,19.2775767 C56.3,21.2775767 54.7,22.8775767 52.7,22.8775767 C50.7,22.8775767 49.1,21.2775767 49.1,19.2775767 C49.1,17.2775767 50.7,15.6775767 52.7,15.6775767 Z M38.1,32.3775767 C40.8,32.9775767 43.3,36.1775767 42.6,38.7775767 C42.6,36.2775767 39.9,33.5775767 38,33.2775767 C36.2,33.0775767 32.8,34.8775767 32.1,37.3775767 C32.1,34.6775767 35.3,32.2775767 38.1,32.3775767 Z M40.7,37.2775767 C40.5,38.8775767 38,38.5775767 38.3,36.9775767 C38.4,36.2775767 39,35.7775767 39.7,35.8775767 C40.3,35.9775767 40.8,36.6775767 40.7,37.2775767 Z M36.7,36.7775767 C36.6,37.4775767 36,37.9775767 35.3,37.8775767 C34.6,37.7775767 34.2,37.1775767 34.2,36.4775767 C34.5,34.8775767 37,35.1775767 36.7,36.7775767 Z M29,11.3775767 C29,7.57757666 32.1,4.57757666 35.9,4.57757666 C39.7,4.57757666 42.8,7.67757666 42.8,11.3775767 C42.8,15.1775767 39.7,18.2775767 35.9,18.2775767 C32.1,18.2775767 29,15.1775767 29,11.3775767 Z M27.8,55.8775767 C23.6,51.6775767 23.9,46.5775767 23.9,42.7775767 C23.9,40.1775767 26.2,38.5775767 28.4,39.0775767 C35.3,40.9775767 42.2,41.3775767 47.2,40.9775767 C47.3,40.9775767 47.2,40.9775767 47.3,40.9775767 C49.4,40.9775767 50.9,42.6775767 50.9,44.7775767 C50.9,58.0775767 37.1,65.0775767 27.8,55.8775767 Z" id="Shape" fill="url(#radialGradient-11)"></path>
                    <path d="M36.1,15.1 C37.9,15.1 39.4,13.6 39.4,11.8 C39.4,10 37.9,8.5 36.1,8.5 C35.5,8.5 35,8.6 34.5,8.9 C34.9,9 35.3,9.4 35.3,9.9 C35.3,10.5 34.8,10.9 34.3,10.9 C33.8,10.9 33.4,10.6 33.3,10.1 C33,10.6 32.9,11.1 32.9,11.7 C32.8,13.7 34.3,15.1 36.1,15.1 Z M38,11.1 C38.5,11.1 38.8,11.5 38.8,11.9 C38.8,12.3 38.4,12.7 38,12.7 C37.6,12.7 37.2,12.3 37.2,11.9 C37.2,11.4 37.6,11.1 38,11.1 Z" id="Shape" fill="#000000"></path>
                    <path d="M52.7,21.3 C53.7,21.3 54.4,20.5 54.4,19.6 C54.4,18.7 53.6,17.9 52.7,17.9 C52.4,17.9 52.1,18 51.9,18.1 C52.1,18.2 52.3,18.4 52.3,18.6 C52.3,18.9 52.1,19.1 51.8,19.1 C51.5,19.1 51.3,18.9 51.3,18.7 C51.1,18.9 51.1,19.2 51.1,19.5 C51,20.5 51.8,21.3 52.7,21.3 Z M53.8,19.1 C54,19.1 54.2,19.3 54.2,19.5 C54.2,19.7 54,19.9 53.8,19.9 C53.6,19.9 53.4,19.7 53.4,19.5 C53.3,19.3 53.5,19.1 53.8,19.1 Z" id="Shape" fill="#000000"></path>
                    <path d="M46.3,54.5 C46.4,54.4 46.6,54.3 46.7,54.2 C46.7,54.2 46.8,54.1 46.8,54.1 L46.8,54.1 C46.8,54.1 46.8,54.1 46.8,54 C46.6,54.1 46.5,54.3 46.3,54.5 Z" id="Path" fill="#000000"></path>
                    <path d="M49.6,44.1 C48.9,42.7 47.5,42.7 46.5,42.8 C46.2,43.7 45.7,44.4 45,45 C44.9,45.1 44.7,45.1 44.5,45 C44.3,44.9 44.3,44.7 44.3,44.5 L44.4,42.9 C43.6,42.9 42.9,42.9 42.1,42.9 C42.4,46.5 43.3,46.9 38.4,47.1 C37.4,47.1 37.6,45.8 37.3,42.6 C36.7,42.5 36.2,42.5 35.6,42.4 C35.2,47.2 35.7,47.3 33,46.6 C32.7,46.5 32.7,46.1 32.7,45.7 L32.7,41.9 C31.7,41.8 31.7,41.7 30.7,41.7 C30.7,42.1 30.8,45.1 30.6,45.4 C30.6,45.4 30.5,45.5 30.5,45.5 C30.5,45.5 30.5,45.3 30.5,45.3 C30.5,45.3 30.4,45.1 30.3,45.1 C30.3,45.1 30.2,45.3 30.1,45.2 C30.1,45.2 30.1,45.3 30.1,45.3 C29.5,44.9 29.1,44.5 28.8,44 C28.4,43.3 27.7,41.9 27.7,41.1 C27.7,41.1 27.7,41.1 27.7,41.1 C27.7,41 27.8,41.1 27.8,41 C27.7,41 27.6,41.1 27.5,41.1 C27.3,41.1 27.2,41 27,41 C26.8,40.9 26.7,40.9 26.5,40.9 C26.1,40.9 25.7,41 25.5,41.2 C25.5,41.2 25.5,41.2 25.4,41.2 C24.4,42.2 24.7,42.9 24.7,45.8 C24.7,48.6 25.8,51.5 27.5,53.6 C27.5,53.5 27.7,53.5 27.7,53.4 C27.7,53.4 27.6,53.3 27.6,53.3 C27.9,52 28.7,51.9 30,52.3 C31.5,52.8 30.5,54.9 30.7,56.3 C30.7,56.3 30.7,56.3 30.7,56.3 C30.7,56.3 30.7,56.4 30.7,56.4 C30.9,56.5 31.2,56.7 31.4,56.8 C31.5,56.7 31.5,56.8 31.6,56.6 C31.6,52 32.1,53.4 34.7,53.9 C35.2,54 35.5,54.5 35.6,55 L35.6,58 L35.6,58.1 L35.7,58.3 C36.3,58.4 37,58.4 37.7,58.4 C37.7,58.3 37.7,58.2 37.7,58.1 L37.8,58.1 L37.9,55.1 C37.9,54.7 38.1,54.4 38.2,54.3 C38.2,54.3 38.2,54.2 38.3,54.2 C38.4,54.1 38.6,54 38.8,53.9 C39.5,53.7 40,53.6 40.9,53.3 C41,53.3 41,53.3 41.1,53.3 C41.2,53.3 41.3,53.3 41.4,53.3 C42.4,53.5 42.3,54.5 42.6,56.8 L42.6,56.8 C42.6,56.8 42.7,56.8 42.7,56.7 C42.7,56.7 42.7,56.8 42.7,56.8 L42.7,57 C43.3,56.7 43.5,56.6 43.7,56.5 C43.7,55.5 43.2,54.4 43.3,53.3 C43.3,53 43.3,53 43.4,52.9 C43.4,52.7 43.5,52.6 43.6,52.5 C43.8,52.3 44.1,52.2 44.4,52.1 C44.5,52.1 44.7,52 44.8,52 C44.8,52 45.1,52 45.1,52 C45.2,52 45.4,52.1 45.4,52.1 C45.5,52.1 45.5,52.2 45.6,52.2 C45.9,52.4 46.2,52.9 46.6,53.6 C46.6,53.6 46.6,53.6 46.6,53.6 C46.6,53.6 46.6,53.7 46.7,53.7 C49.1,50.9 49.7,47.4 49.7,45.4 C49.7,45.4 49.7,45.4 49.7,45.4 C49.7,45.3 49.7,45.2 49.7,45.2 C49.8,44.8 49.7,44.4 49.6,44.1 C49.7,44.1 49.6,44.1 49.6,44.1 Z" id="Path" fill="#000000"></path>
                </g>
            </g>
        </g>
    </g>
</svg>