<?xml version="1.0" encoding="UTF-8"?>
<svg width="54px" height="67px" viewBox="0 0 54 67" version="1.1" xmlns="http://www.w3.org/2000/svg" xmlns:xlink="http://www.w3.org/1999/xlink">
    <title>MonsterMascot</title>
    <defs>
        <radialGradient cx="50%" cy="0%" fx="50%" fy="0%" r="124.134498%" gradientTransform="translate(0.500000,0.000000),scale(1.000000,0.805578),rotate(90.000000),translate(-0.500000,-0.000000)" id="radialGradient-1">
            <stop stop-color="#B700FF" offset="0%"></stop>
            <stop stop-color="#F36BF3" offset="100%"></stop>
        </radialGradient>
    </defs>
    <g id="Page-1" stroke="none" stroke-width="1" fill="none" fill-rule="evenodd">
        <g id="MonsterIcons" transform="translate(-387.000000, -190.000000)" fill-rule="nonzero">
            <g id="MonsterMascot" transform="translate(387.000000, 190.000000)">
                <path d="M34.232429,1.13361814 C35.632429,0.633618136 36.132429,1.63361814 35.432429,2.53361814 C34.232429,4.23361814 28.332429,4.63361814 27.332429,10.4336181 L27.332429,10.4336181 L27.432429,10.4336181 C29.932429,6.93361814 33.932429,4.33361814 38.132429,3.43361814 C41.232429,2.83361814 42.732429,5.83361814 38.232429,5.83361814 C35.032429,5.83361814 31.132429,7.73361814 29.232429,10.2336181 C32.632429,8.73361814 36.032429,7.13361814 39.632429,6.53361814 C43.232429,5.93361814 45.232429,8.93361814 38.932429,9.13361814 C36.132429,9.23361814 33.432429,9.63361814 31.332429,10.6336181 C32.832429,10.7336181 34.232429,11.0336181 35.332429,11.4336181 C35.457429,11.4336181 35.582429,11.4273681 35.707429,11.4179931 L36.457429,11.3492431 L36.457429,11.3492431 L36.832429,11.3336181 C41.532429,11.3336181 45.332429,15.1336181 45.332429,19.8336181 C45.332429,22.0336181 44.432429,24.1336181 43.032429,25.6336181 C43.132429,26.2336181 43.232429,26.7336181 43.232429,27.3336181 C49.632429,32.8336181 49.732429,44.7336181 48.632429,53.2336181 C49.232429,53.7336181 51.232429,55.4336181 51.932429,55.6336181 C53.432429,56.2336181 52.632429,59.7336181 48.032429,54.5336181 C48.132429,54.7336181 48.932429,56.4336181 49.132429,57.3336181 C49.332429,58.7336181 48.032429,58.8336181 47.932429,57.5336181 C47.932429,56.7336181 47.032429,55.1336181 47.032429,54.9336181 C46.9857623,55.0269515 46.8302068,55.3380626 46.647066,55.7043441 L46.485229,56.0280181 C46.320429,56.3576181 46.152429,56.6936181 46.032429,56.9336181 C45.232429,58.5336181 43.832429,58.4336181 44.432429,56.6336181 C44.732429,55.6336181 46.132429,53.9336181 46.232429,53.9336181 C46.132429,53.9336181 44.232429,54.7336181 43.832429,55.5336181 C42.632429,57.6336181 40.932429,56.6336181 42.832429,54.6336181 C43.732429,53.8336181 44.832429,53.1336181 46.132429,52.9336181 C46.532429,47.0336181 46.032429,38.9336181 43.132429,33.8336181 C43.032429,38.4336181 42.432429,47.4336181 39.432429,50.9336181 C37.232429,53.4336181 35.932429,54.0336181 33.532429,54.5336181 C33.532429,57.8336181 33.732429,59.8336181 35.332429,62.6336181 C36.532429,64.8336181 33.032429,66.0336181 32.132429,64.1336181 C30.932429,61.4336181 31.232429,57.7336181 31.632429,54.8336181 C28.532429,55.2336181 24.832429,55.2336181 21.732429,54.8336181 C22.232429,57.8336181 22.532429,61.4336181 21.232429,64.1336181 C20.332429,65.9336181 16.832429,64.8336181 18.032429,62.6336181 C19.632429,59.8336181 19.932429,57.7336181 19.832429,54.4336181 C18.932429,54.2336181 18.132429,54.0336181 17.432429,53.7336181 C16.132429,53.2336181 13.332429,50.8336181 12.332429,48.2336181 C10.832429,44.1336181 10.232429,38.2336181 10.132429,33.7336181 C7.23242899,38.8336181 6.73242899,46.9336181 7.13242899,52.8336181 C8.43242899,53.0336181 9.53242899,53.7336181 10.432429,54.5336181 C12.332429,56.5336181 10.632429,57.4336181 9.43242899,55.4336181 C9.03242899,54.7336181 7.13242899,53.8336181 7.03242899,53.8336181 C7.13242899,53.8336181 8.53242899,55.6336181 8.83242899,56.5336181 C9.43242899,58.3336181 8.03242899,58.4336181 7.23242899,56.8336181 C7.03242899,56.2336181 6.43242899,55.0336181 6.33242899,54.8336181 C6.33242899,55.0336181 5.43242899,56.5336181 5.43242899,57.4336181 C5.33242899,58.6336181 4.03242899,58.6336181 4.23242899,57.2336181 C4.53242899,56.3336181 5.23242899,54.6336181 5.33242899,54.4336181 C5.13242899,54.6336181 3.43242899,56.7336181 2.13242899,57.2336181 C0.832428995,57.8336181 0.632428995,56.0336181 1.63242899,55.7336181 C2.33242899,55.5336181 4.33242899,53.8336181 4.93242899,53.3336181 C3.83242899,44.8336181 3.93242899,32.9336181 10.332429,27.4336181 C10.332429,27.2836181 10.338679,27.1398681 10.348054,26.9992431 L10.416804,26.1679931 L10.416804,26.1679931 L10.432429,25.7336181 C9.03242899,24.2336181 8.13242899,22.2336181 8.13242899,19.9336181 C8.13242899,15.2336181 11.932429,11.4336181 16.632429,11.4336181 C17.132429,11.4336181 17.632429,11.4336181 18.132429,11.5336181 C19.932429,10.8336181 22.632429,10.5336181 25.432429,10.4336181 C27.232429,6.33361814 29.932429,2.53361814 34.232429,1.13361814 Z" id="Shape" stroke="#000000" stroke-width="2" fill="#FFFFFF"></path>
                <g id="Group" transform="translate(1.000000, 0.000000)">
                    <path d="M51.1,55.6 C50.4,55.4 48.4,53.7 47.8,53.2 C48.9,44.7 48.8,32.8 42.4,27.3 C42.4,26.7 42.3,26.2 42.2,25.6 C43.6,24.1 44.5,22 44.5,19.8 C44.5,15.1 40.7,11.3 36,11.3 C35.5,11.3 35,11.4 34.5,11.4 C33.4,11 32,10.7 30.5,10.6 C32.6,9.6 35.3,9.2 38.1,9.1 C44.4,8.9 42.4,5.9 38.8,6.5 C35.2,7.1 31.8,8.7 28.4,10.2 C30.3,7.7 34.2,5.8 37.4,5.8 C41.9,5.8 40.4,2.8 37.3,3.4 C33.1,4.3 29.1,6.9 26.6,10.4 C26.6,10.4 26.6,10.4 26.5,10.4 C27.5,4.6 33.4,4.2 34.6,2.5 C35.3,1.6 34.8,0.6 33.4,1.1 C29.1,2.5 26.4,6.3 24.6,10.4 C21.8,10.5 19.1,10.8 17.3,11.5 C16.8,11.4 16.3,11.4 15.8,11.4 C11.1,11.4 7.3,15.2 7.3,19.9 C7.3,22.2 8.2,24.2 9.6,25.7 C9.6,26.3 9.5,26.8 9.5,27.4 C3.1,32.9 3,44.8 4.1,53.3 C3.5,53.8 1.5,55.5 0.8,55.7 C-0.2,56 -2.91433544e-15,57.8 1.3,57.2 C2.6,56.7 4.3,54.6 4.5,54.4 C4.4,54.6 3.7,56.3 3.4,57.2 C3.2,58.6 4.5,58.6 4.6,57.4 C4.6,56.5 5.5,55 5.5,54.8 C5.6,55 6.2,56.2 6.4,56.8 C7.2,58.4 8.6,58.3 8,56.5 C7.7,55.6 6.3,53.8 6.2,53.8 C6.3,53.8 8.2,54.7 8.6,55.4 C9.8,57.4 11.5,56.5 9.6,54.5 C8.7,53.7 7.6,53 6.3,52.8 C5.9,46.9 6.4,38.8 9.3,33.7 C9.4,38.2 10,44.1 11.5,48.2 C12.5,50.8 15.3,53.2 16.6,53.7 C17.3,54 18.1,54.2 19,54.4 C19.1,57.7 18.8,59.8 17.2,62.6 C16,64.8 19.5,65.9 20.4,64.1 C21.7,61.4 21.4,57.8 20.9,54.8 C24,55.2 27.7,55.2 30.8,54.8 C30.4,57.7 30.1,61.4 31.3,64.1 C32.2,66 35.7,64.8 34.5,62.6 C32.9,59.8 32.7,57.8 32.7,54.5 C35.1,54 36.4,53.4 38.6,50.9 C41.6,47.4 42.2,38.4 42.3,33.8 C45.2,38.9 45.7,47 45.3,52.9 C44,53.1 42.9,53.8 42,54.6 C40.1,56.6 41.8,57.6 43,55.5 C43.4,54.7 45.3,53.9 45.4,53.9 C45.3,53.9 43.9,55.6 43.6,56.6 C43,58.4 44.4,58.5 45.2,56.9 C45.5,56.3 46.1,55.1 46.2,54.9 C46.2,55.1 47.1,56.7 47.1,57.5 C47.2,58.8 48.5,58.7 48.3,57.3 C48.1,56.4 47.3,54.7 47.2,54.5 C51.8,59.7 52.6,56.2 51.1,55.6 Z M10.1,20.6 C10.1,17.1 12.9,14.3 16.4,14.3 C19.9,14.3 22.7,17.1 22.7,20.6 C22.7,24.1 19.9,26.9 16.4,26.9 C12.9,26.9 10.1,24.1 10.1,20.6 Z M15.2,33.8 C16.8,34.6 18.5,35.1 20.1,35.4 C20.3,34.4 20.1,33.8 20.5,33.5 L20.5,33.5 C21,33 22.5,32.8 23,33.3 C23.3,33.9 23.1,32.9 23.3,35.6 C23.9,35.6 24.4,35.5 25,35.5 C24.9,34.3 24.5,33.4 24.8,33 L24.8,33 C25.1,32.4 26.6,31.8 27.2,32.2 C27.8,32.8 27.4,32.7 28.1,34.8 C28.6,34.6 29.1,34.4 29.6,34.2 C29.4,33 28.9,32.2 29.2,31.7 C29.2,31.7 29.2,31.7 29.2,31.7 C29.5,31 31.2,29.9 32,30.1 L32,30.1 C32,30.1 32,30.1 32,30.1 C32.2,30.2 32.3,30.3 32.4,30.4 L33.1,32.1 C34.6,31.1 35.8,29.9 36.9,28.9 C31.6,36.3 22.8,38.9 15.2,33.8 Z M35.6,26.9 C32.1,26.9 29.3,24.1 29.3,20.6 C29.3,17.1 32.1,14.3 35.6,14.3 C39.1,14.3 41.9,17.1 41.9,20.6 C41.9,24.1 39.1,26.9 35.6,26.9 Z" id="Shape" fill="url(#radialGradient-1)"></path>
                    <path d="M19.2,21.4 C19.3,21 19.2,20.6 19.1,20.3 C18.9,20.5 18.5,20.7 18.2,20.6 C17.7,20.5 17.3,20 17.4,19.4 C17.5,19.1 17.6,18.9 17.9,18.7 C17.7,18.6 17.4,18.5 17.2,18.4 C15.8,18.2 14.5,19.1 14.3,20.4 C14.1,21.8 15,23.1 16.3,23.3 C17.7,23.7 19,22.8 19.2,21.4 Z M16.4,21.8 C16.1,22 15.7,21.9 15.5,21.6 C15.3,21.3 15.4,20.9 15.7,20.7 C16,20.5 16.4,20.6 16.6,20.9 C16.8,21.2 16.7,21.6 16.4,21.8 Z" id="Shape" fill="#000000"></path>
                    <path d="M34.8,18.5 C34.5,18.5 34.3,18.6 34.1,18.8 C34.3,19 34.5,19.2 34.6,19.5 C34.7,20 34.3,20.6 33.8,20.7 C33.5,20.8 33.1,20.6 32.9,20.4 C32.8,20.7 32.8,21.1 32.8,21.5 C33,22.9 34.3,23.8 35.7,23.5 C37.1,23.3 38,22 37.7,20.6 C37.5,19.2 36.2,18.3 34.8,18.5 Z M36.4,21.6 C36.2,21.9 35.8,21.9 35.5,21.8 C35.2,21.6 35.1,21.2 35.3,20.9 C35.5,20.6 35.9,20.5 36.1,20.7 C36.5,21 36.6,21.4 36.4,21.6 Z" id="Shape" fill="#000000"></path>
                </g>
            </g>
        </g>
    </g>
</svg>