<?xml version="1.0" encoding="UTF-8"?>
<svg width="72px" height="80px" viewBox="0 0 72 80" version="1.1" xmlns="http://www.w3.org/2000/svg" xmlns:xlink="http://www.w3.org/1999/xlink">
    <title>noun_Monster_3288451</title>
    <g id="Page-1" stroke="none" stroke-width="1" fill="none" fill-rule="evenodd">
        <g id="noun_Monster_3288451" fill="#000000" fill-rule="nonzero">
            <path d="M57.2077026,27.1308594 L57.2077026,24.6508789 C57.2077026,14.8808594 49.2077026,6.8808594 39.4276733,6.8808594 C31.4976806,6.8808594 24.7277221,12.1408692 22.4677124,19.3609009 C16.7077026,13.3709107 10.9476929,7.3908692 5.1976929,1.4008789 C2.9577027,-0.9191284 -0.5723266,2.6209106 1.6577149,4.9408569 C8.3276978,11.8709106 14.987671,18.7908935 21.6477051,25.7208862 L21.6477051,40.270874 L24.7376709,44.6809082 L26.8276978,41.1408691 L28.9177247,44.6809082 L30.1077271,42.6708984 C27.2476807,53.230896 24.3876953,63.7908936 21.52771,74.3609009 C18.8676758,74.3609009 16.2077027,74.3609009 13.5576783,74.3609009 C10.3377076,74.3609009 10.3377076,79.3609009 13.5576783,79.3609009 C16.8477174,79.3609009 20.1477052,79.3609009 23.4376832,79.3609009 C24.5377198,79.3609009 25.5676881,78.5808716 25.8477174,77.520874 C29.0877076,65.5808716 32.3176881,53.6408691 35.5576783,41.7008667 L37.3176881,44.6809082 L39.4276735,41.1209106 L41.5377199,44.6809082 L43.2977297,41.7008667 C46.5377199,53.6408691 49.7677004,65.5808716 53.0076906,77.520874 C53.2877199,78.5808716 54.3176882,79.3609009 55.4177248,79.3609009 C58.7077028,79.3609009 62.0076906,79.3609009 65.2977297,79.3609009 C68.5177004,79.3609009 68.5177004,74.3609009 65.2977297,74.3609009 C62.6477053,74.3609009 59.9876711,74.3609009 57.327698,74.3609009 C54.4677126,63.7908936 51.6077273,53.230896 48.7476809,42.6708985 L49.9376833,44.6809083 L52.0277102,41.1408692 L54.117676,44.6809083 L57.2077029,40.2708741 L57.2077029,32.8009034 C65.5477298,38.1608888 67.3377078,49.7409058 65.3977053,59.1809083 C64.7576907,62.3208619 69.5676882,63.6608888 70.2177126,60.5108644 C72.817688,47.8208618 69.5477295,32.8709106 57.2077026,27.1308594 Z M39.4276733,27.5808716 C35.0676879,27.5808716 31.5277099,24.0408936 31.5277099,19.6809082 C31.5277099,15.3208618 35.0676879,11.7808838 39.4276733,11.7808838 C43.7877197,11.7808838 47.3276977,15.3208618 47.3276977,19.6809082 C47.3276977,24.0408936 43.7877197,27.5808716 39.4276733,27.5808716 Z" id="Shape"></path>
            <path d="M39.4276733,15.6109009 C37.1776733,15.6109009 35.3477172,17.4309082 35.3477172,19.6809082 C35.3477172,21.9309082 37.1776733,23.7608643 39.4276733,23.7608643 C41.6776733,23.7608643 43.5076904,21.9309082 43.5076904,19.6809082 C43.5076904,17.4309082 41.6776733,15.6109009 39.4276733,15.6109009 Z M38.2277222,19.3908691 C37.7177124,19.3908691 37.3076783,18.980896 37.3076783,18.4708862 C37.3076783,17.9708862 37.7177125,17.5609131 38.2277222,17.5609131 C38.7277222,17.5609131 39.1376953,17.9708862 39.1376953,18.4708862 C39.1376953,18.980896 38.7277222,19.3908691 38.2277222,19.3908691 Z" id="Shape"></path>
        </g>
    </g>
</svg>