<?xml version="1.0" encoding="UTF-8"?>
<svg width="64px" height="67px" viewBox="0 0 64 67" version="1.1" xmlns="http://www.w3.org/2000/svg" xmlns:xlink="http://www.w3.org/1999/xlink">
    <title>MoshiMonster</title>
    <defs>
        <path d="M30.8437499,0.189339092 C31.2437499,-0.0106609071 31.8437499,-0.110660907 32.2437499,0.189339092 C32.4437499,0.389339092 32.5437499,0.689339092 32.5437499,0.989339091 C32.5437499,1.18933909 32.4437499,1.48933909 32.3437499,1.78933909 C31.6437499,3.98933909 30.9437499,6.28933908 31.2437499,8.58933908 C32.2437499,6.08933908 33.7437499,3.88933909 35.7437499,2.08933909 C36.7437499,1.18933909 37.8437499,0.389339092 39.1437499,0.0893390927 C39.6437499,-0.0106609071 40.0437499,-0.0106609071 40.4437499,0.0893390927 C40.8437499,0.189339092 41.2437499,0.389339092 41.4437499,0.789339091 C41.7437499,1.28933909 41.6437499,1.88933909 41.3437499,2.38933909 C41.0437499,2.88933909 40.5437499,3.28933909 40.1437499,3.58933909 C39.1437499,4.28933909 38.2437499,4.88933908 37.2437499,5.58933908 C36.8437499,5.88933908 36.3437499,6.28933908 35.7437499,6.78933908 C35.6437499,6.88933908 35.5437499,7.08933908 35.3437499,7.38933908 C36.0437499,7.18933908 39.2437499,7.18933908 40.1437499,7.38933908 C41.4437499,7.08933908 41.9437499,7.38933908 40.4437499,8.68933908 C40.4437499,8.68933908 40.5437499,8.78933908 40.6437499,8.78933908 C41.2437499,8.72267241 42.0314042,8.70538846 42.8388117,8.73090286 L43.1421874,8.74246408 C45.8749999,8.86433908 48.5937499,9.46433908 44.8437499,10.2893391 C44.9437499,10.3560057 46.0215277,10.9560057 47.1659721,11.6819317 L47.4034061,11.8337864 C49.6227564,13.2653729 51.8563936,15.0617529 47.5437499,14.2893391 C49.6437499,15.7893391 55.3437499,22.0893391 50.4437499,20.0893391 C51.0437499,21.3893391 50.9437499,21.1893391 51.0437499,21.2893391 C52.5437499,24.589339 57.9437499,30.789339 60.1437499,43.089339 C60.5437499,45.389339 61.2437499,49.289339 60.6437499,51.489339 C61.2437499,52.189339 62.0437499,53.989339 61.8437499,54.689339 C61.4437499,54.989339 60.6437499,54.389339 60.0437499,53.689339 C59.7437499,54.089339 59.4437499,54.389339 59.0437499,54.689339 C59.2437499,55.489339 58.8437499,57.689339 58.2437499,57.689339 C57.8437499,57.689339 57.4437499,56.289339 57.4437499,55.289339 C57.0437499,55.289339 56.7437499,55.189339 56.4437499,55.189339 C56.1437499,56.089339 55.2437499,57.589339 54.7437499,57.389339 C54.2437499,57.189339 54.6437499,55.389339 54.8437499,54.789339 C54.5437499,54.689339 54.0437499,54.389339 53.6437499,53.989339 C53.0437499,54.789339 51.9437499,55.489339 51.6437499,55.189339 C51.2437499,54.789339 52.1437499,52.989339 52.6437499,52.589339 C51.4437499,49.489339 54.5437499,47.389339 52.4437499,36.489339 C52.2437499,36.489339 51.9437499,36.289339 51.5437499,35.789339 C51.2437499,35.389339 50.9437499,34.789339 50.4437499,33.889339 C50.4822114,34.0047236 50.5058801,34.1940728 50.526135,34.4403176 L50.5495305,34.7620291 C50.572744,35.1088657 50.5975961,35.5278006 50.6437499,35.989339 C50.8437499,42.489339 50.1437499,45.789339 47.8437499,39.689339 C47.8437499,39.889339 47.7437499,40.289339 47.7437499,40.589339 C47.5437499,43.289339 46.0437499,47.889339 45.6437499,48.189339 C45.4437499,48.389339 45.4437499,47.389339 46.0437499,44.589339 C45.7437499,45.289339 45.1437499,46.289339 44.4437499,47.389339 C45.1437499,48.989339 45.6437499,50.789339 45.9437499,52.989339 C45.6437499,52.489339 45.4437499,51.889339 45.1437499,51.389339 C45.7437499,54.089339 45.8437499,57.289339 45.2437499,60.789339 C45.0437499,61.889339 44.7437499,63.089339 44.1437499,63.789339 C43.4437499,64.389339 42.3437499,64.189339 42.0437499,62.889339 C41.8437499,63.789339 41.1437499,64.489339 40.5437499,64.289339 C39.9437499,64.189339 39.4437499,63.289339 39.4437499,62.289339 C38.6437499,64.189339 37.4437499,64.289339 37.0437499,63.089339 L37.0437499,63.089339 L37.0118542,62.9736585 C36.7691937,62.0047236 37.1168269,60.8508774 38.9437499,54.889339 C38.7437499,55.189339 38.6437499,55.489339 38.4437499,55.789339 L38.4437499,55.789339 L38.4437499,55.089339 C38.2437499,55.189339 38.1437499,55.389339 38.0437499,55.589339 C38.1437499,54.789339 38.2437499,54.089339 38.3437499,53.389339 C37.9437499,53.789339 37.4437499,54.389339 36.9437499,54.589339 C36.9437499,54.689339 36.8437499,54.689339 36.7437499,54.689339 L36.7437499,54.689339 L36.5437499,54.689339 C36.0437499,54.489339 36.2437499,53.289339 36.2437499,52.789339 C32.9437499,56.689339 30.0437499,57.889339 25.74375,52.789339 C25.84375,53.389339 25.94375,54.889339 25.34375,54.689339 C25.24375,54.689339 25.04375,54.589339 25.04375,54.589339 C25.04375,54.589339 24.94375,54.489339 24.84375,54.489339 C24.74375,54.389339 24.04375,53.889339 23.64375,53.389339 C23.74375,54.089339 23.84375,54.789339 23.94375,55.589339 C23.74375,55.389339 23.64375,55.289339 23.54375,55.089339 C23.64375,55.289339 23.64375,55.589339 23.64375,55.789339 C23.44375,55.489339 23.34375,55.189339 23.14375,54.889339 C23.64375,56.489339 24.14375,58.289339 24.74375,60.289339 C25.04375,61.189339 25.34375,62.289339 25.04375,63.089339 C24.84375,63.789339 24.34375,63.989339 23.84375,63.789339 C23.34375,63.589339 22.94375,62.989339 22.64375,62.289339 C22.64375,63.289339 22.14375,64.189339 21.54375,64.289339 C20.94375,64.489339 20.24375,63.789339 20.04375,62.889339 C19.74375,64.189339 18.64375,64.489339 17.94375,63.789339 C17.34375,63.189339 17.04375,61.889339 16.84375,60.789339 C16.24375,57.289339 16.34375,53.989339 16.94375,51.389339 C16.74375,51.889339 16.44375,52.389339 16.14375,52.989339 C16.44375,50.789339 16.94375,48.989339 17.64375,47.389339 C16.94375,46.289339 16.34375,45.289339 16.04375,44.589339 C17.16575,50.529339 15.97907,47.975139 15.071174,44.545383 L14.989478,44.231387 L14.989478,44.231387 L14.90975,43.913839 C14.51675,42.319339 14.21375,40.639339 14.24375,39.589339 C13.34375,41.889339 12.74375,42.689339 12.34375,42.689339 C11.94375,42.689339 11.64375,41.889339 11.54375,40.789339 C11.24375,38.389339 11.44375,34.389339 11.54375,33.689339 C10.54375,35.589339 9.94374998,36.389339 9.54374998,36.389339 C7.84374999,45.689339 9.54374998,48.189339 9.64374998,50.489339 C9.64374998,51.189339 9.54374998,51.889339 9.34374998,52.389339 C9.84374998,52.789339 10.74375,54.589339 10.34375,54.989339 C9.94374998,55.289339 8.94374998,54.589339 8.34374999,53.789339 C8.04374999,54.089339 7.44374999,54.489339 7.14374999,54.589339 C7.34374999,55.089339 7.74374999,56.889339 7.24374999,57.189339 C6.74374999,57.389339 5.84374999,55.989339 5.54374999,54.989339 C5.14374999,55.089339 4.84374999,55.089339 4.54374999,55.089339 C4.54374999,56.089339 4.24374999,57.489339 3.74374999,57.489339 C3.14374999,57.389339 2.84374999,55.489339 2.94374999,54.489339 C2.54375,54.189339 2.24375,53.889339 1.94375,53.489339 C1.34375,54.189339 0.443749999,54.789339 0.14375,54.489339 C-0.25625,54.089339 0.24375,52.589339 0.843749998,51.789339 C0.943749998,51.689339 0.943749998,51.589339 1.04375,51.489339 C0.443749999,49.389339 1.04375,45.489339 1.44375,43.389339 C2.84374999,35.989339 5.54374999,29.089339 9.84374998,23.0893391 C10.24375,22.0893391 10.74375,21.0893391 11.04375,20.1893391 C7.85441665,21.4373391 9.32798109,18.9838635 11.364939,16.7950995 L11.6022396,16.5439503 C12.43991,15.6706191 13.34375,14.8653391 14.04375,14.3893391 C7.14374999,15.5893391 16.54375,10.4893391 16.64375,10.3893391 C11.54375,9.18933908 18.44375,8.68933908 20.84375,8.88933908 C20.94375,8.88933908 21.04375,8.78933908 21.14375,8.78933908 C19.74375,7.48933908 20.24375,7.18933908 21.44375,7.48933908 C22.24375,7.28933908 24.44375,7.28933908 25.64375,7.38933908 C25.04375,6.48933908 24.54375,5.58933908 24.54375,4.48933908 C24.54375,4.28933909 24.54375,4.08933909 24.64375,3.98933909 C24.84375,3.68933909 25.14375,3.68933909 25.44375,3.68933909 C26.24375,3.78933909 26.94375,4.28933909 27.54375,4.88933908 C28.04375,5.48933908 28.4437499,6.28933908 28.8437499,6.98933908 C29.3437499,7.68933908 29.8437499,8.28933908 30.4437499,8.78933908 L30.442,8.788 L30.2739655,8.56076558 C29.0671802,6.8588848 28.7041738,4.60382114 29.2619719,2.56582925 L29.3437499,2.28933909 C29.6437499,1.48933909 30.0437499,0.689339092 30.8437499,0.189339092 Z" id="path-1"></path>
        <radialGradient cx="50%" cy="0%" fx="50%" fy="0%" r="103.957374%" gradientTransform="translate(0.500000,0.000000),scale(1.000000,0.961933),rotate(90.000000),translate(-0.500000,-0.000000)" id="radialGradient-3">
            <stop stop-color="#FE4000" stop-opacity="0.5" offset="0%"></stop>
            <stop stop-color="#FAAE52" stop-opacity="0.5" offset="100%"></stop>
        </radialGradient>
        <path d="M60.8,51.4 C61.4,49.2 60.7,45.3 60.3,43 C58.1,30.7 52.7,24.5 51.2,21.2 C51.1,21.1 51.2,21.3 50.6,20 C55.5,22 49.8,15.7 47.7,14.2 C54.4,15.4 45.3,10.4 45,10.2 C50,9.1 43.5,8.4 40.8,8.7 C40.7,8.7 40.6,8.6 40.6,8.6 C42.1,7.3 41.6,7 40.3,7.3 C39.4,7.1 36.2,7.1 35.5,7.3 C35.7,7 35.8,6.8 35.9,6.7 C36.5,6.2 37,5.8 37.4,5.5 C38.4,4.8 39.3,4.2 40.3,3.5 C40.7,3.2 41.2,2.8 41.5,2.3 C41.8,1.8 41.9,1.2 41.6,0.7 C41.4,0.3 41,0.1 40.6,3.51663143e-14 C40.2,-0.1 39.8,-0.1 39.3,3.51663143e-14 C38,0.3 36.9,1.1 35.9,2 C33.9,3.8 32.4,6 31.4,8.5 C31.1,6.2 31.8,3.9 32.5,1.7 C32.6,1.4 32.7,1.1 32.7,0.9 C32.7,0.6 32.6,0.3 32.4,0.1 C32,-0.2 31.4,-0.1 31,0.1 C30.2,0.6 29.8,1.4 29.5,2.2 C28.8,4.4 29.2,6.9 30.6,8.7 C30,8.2 29.5,7.6 29,6.9 C28.6,6.2 28.2,5.4 27.7,4.8 C27.1,4.2 26.4,3.7 25.6,3.6 C25.3,3.6 25,3.6 24.8,3.9 C24.7,4 24.7,4.2 24.7,4.4 C24.7,5.5 25.2,6.4 25.8,7.3 C24.6,7.2 22.4,7.2 21.6,7.4 C20.4,7.1 19.9,7.4 21.3,8.7 C21.2,8.7 21.1,8.8 21,8.8 C18.6,8.6 11.7,9.1 16.8,10.3 C16.7,10.4 7.3,15.5 14.2,14.3 C11.7,16 6.6,21.9 11.2,20.1 C10.9,21 10.4,22 10,23 C5.7,29 3,35.9 1.6,43.3 C1.2,45.4 0.6,49.3 1.2,51.4 C1.1,51.5 1.1,51.6 1,51.7 C0.4,52.5 -0.1,54 0.3,54.4 C0.6,54.7 1.5,54.1 2.1,53.4 C2.4,53.8 2.7,54.1 3.1,54.4 C3,55.4 3.3,57.3 3.9,57.4 C4.4,57.4 4.7,56 4.7,55 C5,55 5.3,55 5.7,54.9 C6,55.9 6.9,57.3 7.4,57.1 C7.9,56.8 7.5,55 7.3,54.5 C7.6,54.4 8.2,54 8.5,53.7 C9.1,54.5 10.1,55.2 10.5,54.9 C10.9,54.5 10,52.7 9.5,52.3 C9.7,51.8 9.8,51.1 9.8,50.4 C9.7,48.1 8,45.6 9.7,36.3 L9.7,36.3 C10.1,36.3 10.7,35.5 11.7,33.6 C11.6,34.3 11.4,38.3 11.7,40.7 C11.8,41.8 12.1,42.6 12.5,42.6 C12.9,42.6 13.5,41.8 14.4,39.5 C14.3,43 17.9,53.5 16.2,44.5 C16.5,45.2 17.1,46.2 17.8,47.3 C17.1,48.9 16.6,50.7 16.3,52.9 C16.6,52.3 16.9,51.8 17.1,51.3 C16.5,53.9 16.4,57.2 17,60.7 C17.2,61.8 17.5,63.1 18.1,63.7 C18.8,64.4 19.9,64.1 20.2,62.8 C20.4,63.7 21.1,64.4 21.7,64.2 C22.3,64.1 22.8,63.2 22.8,62.2 C23.1,62.9 23.5,63.5 24,63.7 C24.5,63.9 25,63.7 25.2,63 C25.5,62.2 25.2,61.1 24.9,60.2 C24.3,58.2 23.8,56.4 23.3,54.8 C23.5,55.1 23.6,55.4 23.8,55.7 C23.8,55.5 23.8,55.2 23.7,55 C23.8,55.2 23.9,55.3 24.1,55.5 C24,54.7 23.9,54 23.8,53.3 C24.2,53.8 24.9,54.3 25,54.4 C25.1,54.4 25.2,54.5 25.2,54.5 C25.2,54.5 25.4,54.6 25.5,54.6 C26.1,54.8 26,53.3 25.9,52.7 C30.2,57.8 33.1,56.6 36.4,52.7 C36.4,53.2 36.2,54.4 36.7,54.6 C36.7,54.6 36.7,54.6 36.7,54.6 C36.7,54.6 36.9,54.6 36.9,54.6 C37,54.6 37.1,54.6 37.1,54.5 C37.1,54.5 37.1,54.5 37.1,54.5 C37.6,54.3 38.1,53.7 38.5,53.3 C38.4,54 38.3,54.7 38.2,55.5 C38.3,55.3 38.4,55.1 38.6,55 C38.6,55.2 38.6,55.5 38.6,55.7 C38.8,55.4 38.9,55.1 39.1,54.8 C37.2,61 36.9,62 37.2,63 C37.6,64.2 38.8,64.1 39.6,62.2 C39.6,63.2 40.1,64.1 40.7,64.2 C41.3,64.4 42,63.7 42.2,62.8 C42.5,64.1 43.6,64.3 44.3,63.7 C44.9,63 45.2,61.8 45.4,60.7 C46,57.2 45.9,54 45.3,51.3 C45.6,51.8 45.8,52.4 46.1,52.9 C45.8,50.7 45.3,48.9 44.6,47.3 C45.3,46.2 45.9,45.2 46.2,44.5 C45.6,47.3 45.6,48.3 45.8,48.1 C46.2,47.8 47.7,43.2 47.9,40.5 C47.9,40.2 48,39.8 48,39.6 C50.3,45.7 51,42.4 50.8,35.9 C50.7,34.9 50.7,34.1 50.6,33.8 C51.1,34.7 51.4,35.3 51.7,35.7 C52.1,36.2 52.4,36.4 52.6,36.4 C54.7,47.3 51.6,49.4 52.8,52.5 C52.3,52.9 51.4,54.7 51.8,55.1 C52.1,55.4 53.2,54.7 53.8,53.9 C54.2,54.3 54.7,54.6 55,54.7 C54.8,55.3 54.4,57.1 54.9,57.3 C55.4,57.5 56.3,56 56.6,55.1 C56.9,55.1 57.2,55.2 57.6,55.2 C57.6,56.2 58,57.6 58.4,57.6 C59,57.6 59.4,55.4 59.2,54.6 C59.6,54.3 59.9,54 60.2,53.6 C60.8,54.3 61.6,54.9 62,54.6 C62.2,53.9 61.4,52.1 60.8,51.4 Z M33.2,12.4 C34.7,10.9 37.1,10.9 38.5,12.4 C40,13.9 40,16.3 38.5,17.7 C37,19.2 34.6,19.2 33.2,17.7 C31.8,16.3 31.8,13.9 33.2,12.4 Z M23.5,12.4 C25,10.9 27.4,10.9 28.8,12.4 C30.3,13.9 30.3,16.3 28.8,17.7 C27.3,19.2 24.9,19.2 23.5,17.7 C22,16.3 22,13.9 23.5,12.4 Z M41.9,22.4 C41.1,23.6 40.2,24.7 39.1,25.5 C39.5,25.9 40.1,26.7 40.1,27.1 C40.1,27.8 39.3,28.6 38.6,28.6 C38.1,28.6 37.4,27.5 37,26.9 C36.8,27 36.6,27.1 36.5,27.1 C37,27.7 37.8,28.7 37.7,29.2 C37.6,29.9 36.4,30.5 35.7,30.2 C35.2,30 34.8,28.6 34.6,27.7 C33.4,28 32.1,28.2 30.8,28.2 C30.9,29.1 30.9,30.6 30.5,31.1 C29.7,31.8 27.9,31.5 27.4,30.6 C27.1,30.1 27.6,28.7 27.9,27.9 C27,27.7 26,27.3 25.2,26.9 C24.8,27.5 24.1,28.5 23.6,28.6 C22.9,28.7 22.1,27.8 22.1,27.1 C22.1,26.7 22.7,25.9 23.1,25.5 C22,24.6 21,23.6 20.2,22.3 C20,22.2 20,22.1 20,22.1 C20,22.1 20.3,22.4 20.8,22.9 C26.3,28.7 36.1,28.3 41.3,22.9 C41.8,22.4 42.1,22.1 42.1,22.1 C42.1,22.1 42,22.2 41.9,22.4 Z" id="path-4"></path>
    </defs>
    <g id="Page-1" stroke="none" stroke-width="1" fill="none" fill-rule="evenodd">
        <g id="MonsterIcons" transform="translate(-308.000000, -190.000000)">
            <g id="MoshiMonster" transform="translate(308.000000, 190.000000)">
                <g id="Group" transform="translate(1.000000, 1.000000)">
                    <mask id="mask-2" fill="white">
                        <use xlink:href="#path-1"></use>
                    </mask>
                    <use id="Shape" stroke="#000000" stroke-width="2" fill="#FFFFFF" fill-rule="nonzero" xlink:href="#path-1"></use>
                    <path d="M25.8,16.9 C26.6,16.9 27.3,16.2 27.3,15.4 C27.3,15.3 27.3,15.2 27.2,15.1 C27.1,15.2 27,15.3 26.8,15.3 C26.5,15.3 26.2,15 26.2,14.7 C26.2,14.5 26.3,14.3 26.5,14.2 C26.3,14.1 26,14 25.7,14 C24.9,14 24.2,14.7 24.2,15.5 C24.3,16.2 25,16.9 25.8,16.9 Z M25.5,15.4 C25.7,15.4 25.8,15.5 25.8,15.7 C25.8,15.9 25.7,16 25.5,16 C25.3,16 25.2,15.9 25.2,15.7 C25.2,15.6 25.3,15.4 25.5,15.4 Z" id="Shape" fill="#000000" fill-rule="nonzero" mask="url(#mask-2)"></path>
                    <path d="M36.1,16.9 C36.9,16.9 37.6,16.2 37.6,15.4 C37.6,15.3 37.6,15.2 37.5,15.1 C37.4,15.2 37.3,15.3 37.1,15.3 C36.8,15.3 36.5,15 36.5,14.7 C36.5,14.5 36.6,14.3 36.8,14.2 C36.6,14.1 36.3,14 36,14 C35.2,14 34.5,14.7 34.5,15.5 C34.6,16.2 35.3,16.9 36.1,16.9 Z M35.8,15.4 C36,15.4 36.1,15.5 36.1,15.7 C36.1,15.9 36,16 35.8,16 C35.6,16 35.5,15.9 35.5,15.7 C35.5,15.6 35.6,15.4 35.8,15.4 Z" id="Shape" fill="#000000" fill-rule="nonzero" mask="url(#mask-2)"></path>
                    <g id="Shape" fill-rule="nonzero" mask="url(#mask-2)">
                        <use fill="#F5874F" xlink:href="#path-4"></use>
                        <use fill="url(#radialGradient-3)" xlink:href="#path-4"></use>
                    </g>
                </g>
            </g>
        </g>
    </g>
</svg>